font.ufo
<glyph name="t" format="1">
	<unicode hex="0074"/>
	<advance width="384"/>
	<outline>
		<contour>
			<point x="210" y="-12" type="curve" smooth="yes"/>
			<point x="266" y="-12"/>
			<point x="308" y="0"/>
			<point x="336" y="10" type="curve"/>
			<point x="308" y="122" type="line"/>
			<point x="296" y="116"/>
			<point x="284" y="112"/>
			<point x="272" y="112" type="curve" smooth="yes"/>
			<point x="240" y="112"/>
			<point x="224" y="126"/>
			<point x="224" y="156" type="curve" smooth="yes"/>
			<point x="224" y="166"/>
			<point x="224" y="176"/>
			<point x="226" y="188" type="curve" smooth="yes"/>
			<point x="264" y="376" type="line"/>
			<point x="376" y="376" type="line"/>
			<point x="400" y="500" type="line"/>
			<point x="292" y="500" type="line"/>
			<point x="316" y="628" type="line"/>
			<point x="182" y="628" type="line"/>
			<point x="138" y="500" type="line"/>
			<point x="66" y="494" type="line"/>
			<point x="42" y="376" type="line"/>
			<point x="106" y="376" type="line"/>
			<point x="68" y="194" type="line" smooth="yes"/>
			<point x="64" y="172"/>
			<point x="60" y="150"/>
			<point x="60" y="128" type="curve" smooth="yes"/>
			<point x="60" y="46"/>
			<point x="104" y="-12"/>
		</contour>
		<contour>
			<point name="aboveLC" x="258" y="664" type="move"/>
		</contour>
		<contour>
			<point name="baseLC" x="186" y="0" type="move"/>
		</contour>
		<contour>
			<point name="belowLC" x="183" y="-22" type="move"/>
		</contour>
	</outline>
</glyph>
<glyph name="s.sups" format="1">
	<unicode hex="02E2"/>
	<advance width="290"/>
	<outline>
		<contour>
			<point x="149" y="360" type="curve" smooth="yes"/>
			<point x="238" y="360"/>
			<point x="293" y="405"/>
			<point x="293" y="471" type="curve" smooth="yes"/>
			<point x="293" y="521"/>
			<point x="259" y="547"/>
			<point x="228" y="564" type="curve" smooth="yes"/>
			<point x="203" y="578"/>
			<point x="176" y="588"/>
			<point x="176" y="605" type="curve" smooth="yes"/>
			<point x="176" y="618"/>
			<point x="185" y="630"/>
			<point x="205" y="630" type="curve" smooth="yes"/>
			<point x="232" y="630"/>
			<point x="256" y="612"/>
			<point x="277" y="594" type="curve"/>
			<point x="327" y="659" type="line"/>
			<point x="296" y="684"/>
			<point x="255" y="708"/>
			<point x="205" y="708" type="curve" smooth="yes"/>
			<point x="129" y="708"/>
			<point x="72" y="659"/>
			<point x="72" y="595" type="curve" smooth="yes"/>
			<point x="72" y="551"/>
			<point x="103" y="523"/>
			<point x="135" y="502" type="curve" smooth="yes"/>
			<point x="170" y="479"/>
			<point x="190" y="476"/>
			<point x="190" y="462" type="curve" smooth="yes"/>
			<point x="190" y="447"/>
			<point x="181" y="438"/>
			<point x="156" y="438" type="curve" smooth="yes"/>
			<point x="132" y="438"/>
			<point x="108" y="452"/>
			<point x="82" y="476" type="curve"/>
			<point x="21" y="417" type="line"/>
			<point x="52" y="382"/>
			<point x="104" y="360"/>
		</contour>
	</outline>
</glyph>
<glyph name="tildecmb" format="1">
	<unicode hex="0303"/>
	<outline>
		<contour>
			<point x="188" y="572" type="curve" smooth="yes"/>
			<point x="263" y="572"/>
			<point x="320" y="617"/>
			<point x="338" y="730" type="curve"/>
			<point x="234" y="736" type="line"/>
			<point x="228" y="700"/>
			<point x="212" y="690"/>
			<point x="196" y="690" type="curve" smooth="yes"/>
			<point x="158" y="690"/>
			<point x="137" y="746"/>
			<point x="72" y="746" type="curve" smooth="yes"/>
			<point x="-3" y="746"/>
			<point x="-60" y="701"/>
			<point x="-78" y="588" type="curve"/>
			<point x="26" y="582" type="line"/>
			<point x="32" y="618"/>
			<point x="48" y="628"/>
			<point x="64" y="628" type="curve" smooth="yes"/>
			<point x="102" y="628"/>
			<point x="123" y="572"/>
		</contour>
		<contour>
			<point name="_aboveLC" x="114" y="522" type="move"/>
		</contour>
	</outline>
</glyph>
<glyph name="g.sups" format="1">
	<unicode hex="1D4D"/>
	<advance width="370"/>
	<outline>
		<contour>
			<point x="314" y="700" type="line"/>
			<point x="298" y="666" type="line"/>
			<point x="294" y="666" type="line"/>
			<point x="282" y="690"/>
			<point x="258" y="708"/>
			<point x="230" y="708" type="curve" smooth="yes"/>
			<point x="137" y="708"/>
			<point x="54" y="610"/>
			<point x="54" y="489" type="curve" smooth="yes"/>
			<point x="54" y="415"/>
			<point x="89" y="373"/>
			<point x="148" y="373" type="curve" smooth="yes"/>
			<point x="182" y="373"/>
			<point x="214" y="386"/>
			<point x="244" y="408" type="curve"/>
			<point x="248" y="408" type="line"/>
			<point x="232" y="363" type="line" smooth="yes"/>
			<point x="219" y="327"/>
			<point x="193" y="307"/>
			<point x="160" y="307" type="curve" smooth="yes"/>
			<point x="128" y="307"/>
			<point x="96" y="323"/>
			<point x="67" y="340" type="curve"/>
			<point x="23" y="266" type="line"/>
			<point x="67" y="234"/>
			<point x="118" y="221"/>
			<point x="157" y="221" type="curve" smooth="yes"/>
			<point x="252" y="221"/>
			<point x="317" y="267"/>
			<point x="338" y="370" type="curve" smooth="yes"/>
			<point x="404" y="700" type="line"/>
		</contour>
		<contour>
			<point x="196" y="462" type="curve" smooth="yes"/>
			<point x="180" y="462"/>
			<point x="169" y="474"/>
			<point x="169" y="503" type="curve" smooth="yes"/>
			<point x="169" y="571"/>
			<point x="200" y="618"/>
			<point x="238" y="618" type="curve" smooth="yes"/>
			<point x="249" y="618"/>
			<point x="263" y="610"/>
			<point x="270" y="594" type="curve"/>
			<point x="251" y="491" type="line"/>
			<point x="235" y="467"/>
			<point x="214" y="462"/>
		</contour>
	</outline>
</glyph>
<glyph name="trianglewhiteup" format="1">
	<unicode hex="25B3"/>
	<advance width="870"/>
	<outline>
		<contour>
			<point x="60" y="-60" type="line"/>
			<point x="840" y="-60" type="line"/>
			<point x="840" y="-58" type="line"/>
			<point x="452" y="740" type="line"/>
			<point x="448" y="740" type="line"/>
			<point x="60" y="-58" type="line"/>
		</contour>
		<contour>
			<point x="245" y="50" type="line"/>
			<point x="450" y="495" type="line"/>
			<point x="655" y="50" type="line"/>
		</contour>
	</outline>
</glyph>
<glyph name="A" format="1">
  <advance width="562"/>
  <outline>
    <contour>
      <point x="380" y="682" type="move" name="aboveUC"/>
    </contour>
    <contour>
      <point x="432" y="0" type="move" name="ogonekUC"/>
    </contour>
    <contour>
      <point x="242" y="-22" type="move" name="belowLC"/>
    </contour>
    <contour>
      <point x="-66" y="0" type="line"/>
      <point x="110" y="0" type="line"/>
      <point x="266" y="344" type="line" smooth="yes"/>
      <point x="294" y="406"/>
      <point x="316" y="466"/>
      <point x="342" y="530" type="curve"/>
      <point x="346" y="530" type="line"/>
      <point x="346" y="464"/>
      <point x="348" y="406"/>
      <point x="350" y="344" type="curve" smooth="yes"/>
      <point x="360" y="0" type="line"/>
      <point x="528" y="0" type="line"/>
      <point x="466" y="650" type="line"/>
      <point x="274" y="650" type="line"/>
    </contour>
    <contour>
      <point x="110" y="148" type="line"/>
      <point x="412" y="148" type="line"/>
      <point x="440" y="268" type="line"/>
      <point x="138" y="268" type="line"/>
    </contour>
  </outline>
</glyph>
<glyph name="Aogonek" format="1">
  <advance width="562"/>
  <outline>
    <contour>
      <point x="394" y="-226" type="curve" smooth="yes"/>
      <point x="430" y="-226"/>
      <point x="478" y="-212"/>
      <point x="508" y="-192" type="curve"/>
      <point x="478" y="-116" type="line"/>
      <point x="468" y="-122"/>
      <point x="461" y="-124"/>
      <point x="454" y="-124" type="curve" smooth="yes"/>
      <point x="436" y="-124"/>
      <point x="420" y="-114"/>
      <point x="420" y="-94" type="curve" smooth="yes"/>
      <point x="420" y="-66"/>
      <point x="444" y="-28"/>
      <point x="528" y="0" type="curve"/>
      <point x="466" y="650" type="line"/>
      <point x="274" y="650" type="line"/>
      <point x="-66" y="0" type="line"/>
      <point x="110" y="0" type="line"/>
      <point x="266" y="344" type="line" smooth="yes"/>
      <point x="294" y="406"/>
      <point x="316" y="466"/>
      <point x="342" y="530" type="curve"/>
      <point x="346" y="530" type="line"/>
      <point x="346" y="464"/>
      <point x="348" y="406"/>
      <point x="350" y="344" type="curve" smooth="yes"/>
      <point x="360" y="0" type="line"/>
      <point x="392" y="0" type="line"/>
      <point x="358" y="-24"/>
      <point x="296" y="-78"/>
      <point x="296" y="-146" type="curve" smooth="yes"/>
      <point x="296" y="-196"/>
      <point x="336" y="-226"/>
    </contour>
    <contour>
      <point x="110" y="148" type="line"/>
      <point x="412" y="148" type="line"/>
      <point x="440" y="268" type="line"/>
      <point x="138" y="268" type="line"/>
    </contour>
    <contour>
      <point x="380" y="682" type="move" name="aboveUC"/>
    </contour>
  </outline>
</glyph>
<glyph name="Bstroke" format="1">
  <advance width="644"/>
  <outline>
    <contour>
      <point x="44" y="0" type="line"/>
      <point x="290" y="0" type="line" smooth="yes"/>
      <point x="442" y="0"/>
      <point x="576" y="63"/>
      <point x="576" y="226" type="curve" smooth="yes"/>
      <point x="576" y="291"/>
      <point x="540" y="334"/>
      <point x="466" y="354" type="curve"/>
      <point x="468" y="358" type="line"/>
      <point x="558" y="384"/>
      <point x="608" y="444"/>
      <point x="608" y="510" type="curve" smooth="yes"/>
      <point x="608" y="609"/>
      <point x="514" y="650"/>
      <point x="382" y="650" type="curve" smooth="yes"/>
      <point x="174" y="650" type="line"/>
    </contour>
    <contour>
      <point x="284" y="406" type="line"/>
      <point x="310" y="536" type="line"/>
      <point x="356" y="536" type="line" smooth="yes"/>
      <point x="414" y="536"/>
      <point x="444" y="518"/>
      <point x="444" y="482" type="curve" smooth="yes"/>
      <point x="444" y="434"/>
      <point x="410" y="406"/>
      <point x="336" y="406" type="curve" smooth="yes"/>
    </contour>
    <contour>
      <point x="226" y="112" type="line"/>
      <point x="264" y="306" type="line"/>
      <point x="338" y="306" type="line" smooth="yes"/>
      <point x="394" y="306"/>
      <point x="422" y="279"/>
      <point x="422" y="230" type="curve" smooth="yes"/>
      <point x="422" y="158"/>
      <point x="376" y="112"/>
      <point x="300" y="112" type="curve" smooth="yes"/>
    </contour>
    <contour>
      <point x="10" y="176" type="line"/>
      <point x="354" y="176" type="line"/>
      <point x="370" y="252" type="line"/>
      <point x="97" y="252" type="line"/>
      <point x="24" y="246" type="line"/>
    </contour>
  </outline>
</glyph>
<glyph name="E" format="1">
  <advance width="536"/>
  <outline>
    <contour>
      <point x="26" y="0" type="line"/>
      <point x="432" y="0" type="line"/>
      <point x="458" y="134" type="line"/>
      <point x="212" y="134" type="line"/>
      <point x="240" y="268" type="line"/>
      <point x="442" y="268" type="line"/>
      <point x="468" y="402" type="line"/>
      <point x="266" y="402" type="line"/>
      <point x="288" y="516" type="line"/>
      <point x="526" y="516" type="line"/>
      <point x="552" y="650" type="line"/>
      <point x="156" y="650" type="line"/>
    </contour>
    <contour>
      <point x="380" y="682" type="move" name="aboveUC"/>
    </contour>
    <contour>
      <point x="348" y="0" type="move" name="ogonekUC"/>
    </contour>
    <contour>
      <point x="250" y="-22" type="move" name="belowLC"/>
    </contour>
  </outline>
</glyph>
<glyph name="Eth" format="1">
  <advance width="644"/>
  <outline>
    <contour>
      <point x="34" y="300" type="line"/>
      <point x="378" y="300" type="line"/>
      <point x="394" y="376" type="line"/>
      <point x="121" y="376" type="line"/>
      <point x="48" y="370" type="line"/>
    </contour>
    <component base="D" xOffset="18"/>
  </outline>
</glyph>
<glyph name="F" format="1">
  <advance width="516"/>
  <outline>
    <contour>
      <point x="26" y="0" type="line"/>
      <point x="186" y="0" type="line"/>
      <point x="236" y="248" type="line"/>
      <point x="438" y="248" type="line"/>
      <point x="464" y="382" type="line"/>
      <point x="262" y="382" type="line"/>
      <point x="288" y="516" type="line"/>
      <point x="526" y="516" type="line"/>
      <point x="552" y="650" type="line"/>
      <point x="156" y="650" type="line"/>
    </contour>
    <contour>
      <point x="378" y="682" type="move" name="aboveUC"/>
    </contour>
    <contour>
      <point x="110" y="-22" type="move" name="belowLC"/>
    </contour>
  </outline>
</glyph>
<glyph name="Germandbls" format="1">
  <advance width="686"/>
  <outline>
    <contour>
      <point x="431" y="-12" type="curve" smooth="yes"/>
      <point x="557" y="-12"/>
      <point x="644" y="75"/>
      <point x="644" y="189" type="curve" smooth="yes"/>
      <point x="644" y="268"/>
      <point x="590" y="318"/>
      <point x="524" y="352" type="curve"/>
      <point x="646" y="462" type="line"/>
      <point x="639" y="607"/>
      <point x="528" y="672"/>
      <point x="402" y="672" type="curve" smooth="yes"/>
      <point x="224" y="672"/>
      <point x="138" y="561"/>
      <point x="112" y="428" type="curve" smooth="yes"/>
      <point x="26" y="0" type="line"/>
      <point x="186" y="0" type="line"/>
      <point x="264" y="398" type="line" smooth="yes"/>
      <point x="283" y="488"/>
      <point x="328" y="544"/>
      <point x="392" y="544" type="curve" smooth="yes"/>
      <point x="438" y="544"/>
      <point x="476" y="522"/>
      <point x="490" y="480" type="curve"/>
      <point x="370" y="366" type="line"/>
      <point x="362" y="274" type="line"/>
      <point x="442" y="251"/>
      <point x="480" y="214"/>
      <point x="480" y="181" type="curve" smooth="yes"/>
      <point x="480" y="141"/>
      <point x="450" y="116"/>
      <point x="418" y="116" type="curve" smooth="yes"/>
      <point x="383" y="116"/>
      <point x="355" y="140"/>
      <point x="338" y="160" type="curve"/>
      <point x="249" y="60" type="line"/>
      <point x="299" y="10"/>
      <point x="365" y="-12"/>
    </contour>
  </outline>
</glyph>
<glyph name="Hbar" format="1">
  <advance width="664"/>
  <outline>
    <contour>
      <point x="68" y="488" type="line"/>
      <point x="736" y="488" type="line"/>
      <point x="750" y="564" type="line"/>
      <point x="156" y="564" type="line"/>
      <point x="82" y="558" type="line"/>
    </contour>
    <component base="H"/>
  </outline>
</glyph>
<glyph name="I" format="1">
  <advance width="310"/>
  <outline>
    <contour>
      <point x="26" y="0" type="line"/>
      <point x="186" y="0" type="line"/>
      <point x="316" y="650" type="line"/>
      <point x="156" y="650" type="line"/>
    </contour>
    <contour>
      <point x="248" y="682" type="move" name="aboveUC"/>
    </contour>
    <contour>
      <point x="102" y="0" type="move" name="ogonekUC"/>
    </contour>
    <contour>
      <point x="110" y="-22" type="move" name="belowLC"/>
    </contour>
  </outline>
</glyph>
<glyph name="M" format="1">
  <advance width="754"/>
  <outline>
    <contour>
      <point x="454" y="682" type="move" name="aboveUC"/>
    </contour>
    <contour>
      <point x="334" y="-30" type="move" name="belowLC"/>
    </contour>
    <contour>
      <point x="26" y="0" type="line"/>
      <point x="172" y="0" type="line"/>
      <point x="216" y="216" type="line" smooth="yes"/>
      <point x="229" y="282"/>
      <point x="236" y="378"/>
      <point x="241" y="444" type="curve"/>
      <point x="244" y="444" type="line"/>
      <point x="264" y="292" type="line"/>
      <point x="306" y="56" type="line"/>
      <point x="366" y="56" type="line"/>
      <point x="504" y="292" type="line"/>
      <point x="585" y="444" type="line"/>
      <point x="588" y="444" type="line"/>
      <point x="566" y="378"/>
      <point x="538" y="284"/>
      <point x="524" y="216" type="curve" smooth="yes"/>
      <point x="478" y="0" type="line"/>
      <point x="628" y="0" type="line"/>
      <point x="758" y="650" type="line"/>
      <point x="592" y="650" type="line"/>
      <point x="440" y="370" type="line"/>
      <point x="383" y="260" type="line"/>
      <point x="379" y="260" type="line"/>
      <point x="364" y="370" type="line"/>
      <point x="322" y="650" type="line"/>
      <point x="156" y="650" type="line"/>
    </contour>
  </outline>
</glyph>
<glyph name="Ohorn" format="1">
  <advance width="670"/>
  <outline>
    <contour>
      <point x="420" y="682" type="move" name="aboveUC"/>
    </contour>
    <contour>
      <point x="304" y="-22" type="move" name="belowLC"/>
    </contour>
    <contour>
      <point x="579" y="579" type="line"/>
      <point x="668" y="596"/>
      <point x="714" y="655"/>
      <point x="714" y="730" type="curve" smooth="yes"/>
      <point x="714" y="756"/>
      <point x="708" y="781"/>
      <point x="696" y="808" type="curve"/>
      <point x="578" y="772" type="line"/>
      <point x="585" y="755"/>
      <point x="590" y="738"/>
      <point x="590" y="722" type="curve" smooth="yes"/>
      <point x="590" y="681"/>
      <point x="567" y="639"/>
      <point x="511" y="633" type="curve"/>
    </contour>
    <component base="O"/>
  </outline>
</glyph>
<glyph name="Oogonek" format="1">
  <advance width="670"/>
  <outline>
    <contour>
      <point x="434" y="682" type="move" name="aboveUC"/>
    </contour>
    <contour>
      <point x="272" y="-226" type="curve" smooth="yes"/>
      <point x="308" y="-226"/>
      <point x="356" y="-212"/>
      <point x="386" y="-192" type="curve"/>
      <point x="356" y="-116" type="line"/>
      <point x="346" y="-122"/>
      <point x="339" y="-124"/>
      <point x="332" y="-124" type="curve" smooth="yes"/>
      <point x="314" y="-124"/>
      <point x="298" y="-114"/>
      <point x="298" y="-94" type="curve" smooth="yes"/>
      <point x="298" y="-66"/>
      <point x="322" y="-32"/>
      <point x="384" y="-4" type="curve" smooth="yes"/>
      <point x="554" y="70"/>
      <point x="644" y="199"/>
      <point x="644" y="386" type="curve" smooth="yes"/>
      <point x="644" y="562"/>
      <point x="542" y="662"/>
      <point x="392" y="662" type="curve" smooth="yes"/>
      <point x="220" y="662"/>
      <point x="56" y="506"/>
      <point x="56" y="264" type="curve" smooth="yes"/>
      <point x="56" y="108"/>
      <point x="135" y="14"/>
      <point x="260" y="-8" type="curve"/>
      <point x="226" y="-34"/>
      <point x="174" y="-84"/>
      <point x="174" y="-146" type="curve" smooth="yes"/>
      <point x="174" y="-196"/>
      <point x="214" y="-226"/>
    </contour>
    <contour>
      <point x="316" y="126" type="curve" smooth="yes"/>
      <point x="256" y="126"/>
      <point x="220" y="180"/>
      <point x="220" y="274" type="curve" smooth="yes"/>
      <point x="220" y="424"/>
      <point x="310" y="524"/>
      <point x="384" y="524" type="curve" smooth="yes"/>
      <point x="444" y="524"/>
      <point x="480" y="470"/>
      <point x="480" y="376" type="curve" smooth="yes"/>
      <point x="480" y="226"/>
      <point x="390" y="126"/>
    </contour>
  </outline>
</glyph>
<glyph name="Uogonek" format="1">
  <advance width="654"/>
  <outline>
    <contour>
      <point x="662" y="650" type="line"/>
      <point x="506" y="650" type="line"/>
      <point x="432" y="282" type="line" smooth="yes"/>
      <point x="410" y="170"/>
      <point x="378" y="126"/>
      <point x="320" y="126" type="curve" smooth="yes"/>
      <point x="254" y="126"/>
      <point x="234" y="160"/>
      <point x="234" y="226" type="curve" smooth="yes"/>
      <point x="234" y="250"/>
      <point x="238" y="274"/>
      <point x="242" y="300" type="curve" smooth="yes"/>
      <point x="312" y="650" type="line"/>
      <point x="152" y="650" type="line"/>
      <point x="88" y="332" type="line" smooth="yes"/>
      <point x="82" y="298"/>
      <point x="74" y="252"/>
      <point x="74" y="222" type="curve" smooth="yes"/>
      <point x="74" y="88"/>
      <point x="134" y="14"/>
      <point x="248" y="-6" type="curve"/>
      <point x="214" y="-30"/>
      <point x="160" y="-86"/>
      <point x="160" y="-146" type="curve" smooth="yes"/>
      <point x="160" y="-196"/>
      <point x="200" y="-226"/>
      <point x="258" y="-226" type="curve" smooth="yes"/>
      <point x="294" y="-226"/>
      <point x="342" y="-212"/>
      <point x="372" y="-192" type="curve"/>
      <point x="342" y="-116" type="line"/>
      <point x="332" y="-122"/>
      <point x="325" y="-124"/>
      <point x="318" y="-124" type="curve" smooth="yes"/>
      <point x="300" y="-124"/>
      <point x="284" y="-114"/>
      <point x="284" y="-94" type="curve" smooth="yes"/>
      <point x="284" y="-66"/>
      <point x="310" y="-30"/>
      <point x="378" y="-6" type="curve" smooth="yes"/>
      <point x="495" y="38"/>
      <point x="556" y="108"/>
      <point x="588" y="286" type="curve" smooth="yes"/>
    </contour>
    <contour>
      <point x="428" y="682" type="move" name="aboveUC"/>
    </contour>
  </outline>
</glyph>
<glyph name="a.sups" format="1">
  <advance width="369"/>
  <outline>
    <contour>
      <point x="52" y="374" type="curve" smooth="yes"/>
      <point x="52" y="296"/>
      <point x="88" y="252"/>
      <point x="146" y="252" type="curve" smooth="yes"/>
      <point x="178" y="252"/>
      <point x="216" y="270"/>
      <point x="244" y="300" type="curve"/>
      <point x="248" y="300" type="line"/>
      <point x="248" y="260" type="line"/>
      <point x="338" y="260" type="line"/>
      <point x="404" y="592" type="line"/>
      <point x="314" y="592" type="line"/>
      <point x="298" y="558" type="line"/>
      <point x="294" y="558" type="line"/>
      <point x="282" y="582"/>
      <point x="258" y="600"/>
      <point x="230" y="600" type="curve" smooth="yes"/>
      <point x="138" y="600"/>
      <point x="52" y="500"/>
    </contour>
    <contour>
      <point x="194" y="342" type="curve" smooth="yes"/>
      <point x="178" y="342"/>
      <point x="166" y="356"/>
      <point x="166" y="388" type="curve" smooth="yes"/>
      <point x="166" y="460"/>
      <point x="202" y="510"/>
      <point x="238" y="510" type="curve" smooth="yes"/>
      <point x="250" y="510"/>
      <point x="264" y="502"/>
      <point x="270" y="486" type="curve"/>
      <point x="252" y="384" type="line"/>
      <point x="234" y="350"/>
      <point x="212" y="342"/>
    </contour>
  </outline>
</glyph>
<glyph name="acutecmb.cap" format="1">
  <advance width="0"/>
  <outline>
    <contour>
      <point x="136" y="682" type="move" name="_aboveUC"/>
    </contour>
    <contour>
      <point x="92" y="680" type="line"/>
      <point x="308" y="782" type="line"/>
      <point x="238" y="899" type="line"/>
      <point x="31" y="772" type="line"/>
    </contour>
  </outline>
</glyph>
<glyph name="acutecmb" format="1">
  <advance width="0"/>
  <outline>
    <contour>
      <point x="114" y="522" type="move" name="_aboveLC"/>
    </contour>
    <contour>
      <point x="96" y="578" type="line"/>
      <point x="313" y="718" type="line"/>
      <point x="218" y="840" type="line"/>
      <point x="27" y="668" type="line"/>
    </contour>
  </outline>
</glyph>
<glyph name="brackhalfbotright" format="1">
  <advance width="346"/>
  <outline>
    <contour>
      <point x="-22" y="-152" type="line"/>
      <point x="190" y="-152" type="line"/>
      <point x="276" y="278" type="line"/>
      <point x="156" y="278" type="line"/>
      <point x="88" y="-68" type="line"/>
      <point x="-6" y="-68" type="line"/>
    </contour>
  </outline>
</glyph>
<glyph name="brackhalftopright" format="1">
  <advance width="346"/>
  <outline>
    <contour>
      <point x="156" y="278" type="line"/>
      <point x="276" y="278" type="line"/>
      <point x="362" y="708" type="line"/>
      <point x="150" y="708" type="line"/>
      <point x="132" y="624" type="line"/>
      <point x="226" y="624" type="line"/>
    </contour>
  </outline>
</glyph>
<glyph name="breveacute" format="1">
  <outline>
    <contour>
      <point x="114" y="572" type="curve" smooth="yes"/>
      <point x="232" y="572"/>
      <point x="298" y="638"/>
      <point x="316" y="732" type="curve"/>
      <point x="234" y="748" type="line"/>
      <point x="219" y="702"/>
      <point x="186" y="668"/>
      <point x="132" y="668" type="curve" smooth="yes"/>
      <point x="78" y="668"/>
      <point x="57" y="702"/>
      <point x="58" y="748" type="curve"/>
      <point x="-32" y="732" type="line"/>
      <point x="-46" y="638"/>
      <point x="-3" y="572"/>
    </contour>
    <contour>
      <point x="146" y="709" type="line"/>
      <point x="290" y="821" type="line"/>
      <point x="204" y="903" type="line"/>
      <point x="82" y="765" type="line"/>
    </contour>
    <contour>
      <point x="114" y="522" type="move" name="_aboveLC"/>
    </contour>
  </outline>
</glyph>
<glyph name="brevebelowcmb" format="1">
  <outline>
    <component base="brevecmb" xOffset="-160" yOffset="-790"/>
    <contour>
      <point x="-6" y="-30" type="move" name="_belowLC"/>
    </contour>
  </outline>
</glyph>
<glyph name="brevecmb.cap" format="1">
  <outline>
    <contour>
      <point x="124" y="694" type="curve" smooth="yes"/>
      <point x="226" y="694"/>
      <point x="292" y="738"/>
      <point x="318" y="834" type="curve"/>
      <point x="230" y="850" type="line"/>
      <point x="213" y="811"/>
      <point x="182" y="792"/>
      <point x="142" y="792" type="curve" smooth="yes"/>
      <point x="102" y="792"/>
      <point x="75" y="811"/>
      <point x="74" y="850" type="curve"/>
      <point x="-22" y="834" type="line"/>
      <point x="-28" y="738"/>
      <point x="22" y="694"/>
    </contour>
    <contour>
      <point x="136" y="682" type="move" name="_aboveUC"/>
    </contour>
  </outline>
</glyph>
<glyph name="brevecmb" format="1">
  <advance width="0"/>
  <outline>
    <contour>
      <point x="114" y="522" type="move" name="_aboveLC"/>
    </contour>
    <contour>
      <point x="114" y="572" type="curve" smooth="yes"/>
      <point x="232" y="572"/>
      <point x="298" y="638"/>
      <point x="316" y="732" type="curve"/>
      <point x="224" y="748" type="line"/>
      <point x="210" y="708"/>
      <point x="182" y="678"/>
      <point x="134" y="678" type="curve" smooth="yes"/>
      <point x="86" y="678"/>
      <point x="66" y="708"/>
      <point x="68" y="748" type="curve"/>
      <point x="-32" y="732" type="line"/>
      <point x="-46" y="638"/>
      <point x="-3" y="572"/>
    </contour>
  </outline>
</glyph>
<glyph name="brevecmb.cap" format="1">
  <advance width="0"/>
  <outline>
    <contour>
      <point x="136" y="682" type="move" name="_aboveUC"/>
    </contour>
    <contour>
      <point x="124" y="694" type="curve" smooth="yes"/>
      <point x="226" y="694"/>
      <point x="292" y="738"/>
      <point x="318" y="834" type="curve"/>
      <point x="230" y="850" type="line"/>
      <point x="213" y="811"/>
      <point x="182" y="792"/>
      <point x="142" y="792" type="curve" smooth="yes"/>
      <point x="102" y="792"/>
      <point x="75" y="811"/>
      <point x="74" y="850" type="curve"/>
      <point x="-22" y="834" type="line"/>
      <point x="-28" y="738"/>
      <point x="22" y="694"/>
    </contour>
  </outline>
</glyph>
<glyph name="brevegrave.cap" format="1">
  <advance width="0"/>
  <outline>
    <contour>
      <point x="136" y="682" type="move" name="_aboveUC"/>
    </contour>
    <contour>
      <point x="222" y="852" type="line"/>
      <point x="152" y="1002" type="line"/>
      <point x="34" y="948" type="line"/>
      <point x="128" y="806" type="line"/>
    </contour>
    <contour>
      <point x="124" y="694" type="curve" smooth="yes"/>
      <point x="226" y="694"/>
      <point x="292" y="738"/>
      <point x="318" y="834" type="curve"/>
      <point x="240" y="850" type="line"/>
      <point x="221" y="804"/>
      <point x="185" y="782"/>
      <point x="140" y="782" type="curve" smooth="yes"/>
      <point x="95" y="782"/>
      <point x="67" y="804"/>
      <point x="64" y="850" type="curve"/>
      <point x="-22" y="834" type="line"/>
      <point x="-28" y="738"/>
      <point x="22" y="694"/>
    </contour>
  </outline>
</glyph>
<glyph name="brevegrave" format="1">
  <advance width="0"/>
  <outline>
    <contour>
      <point x="114" y="522" type="move" name="_aboveLC"/>
    </contour>
    <contour>
      <point x="114" y="572" type="curve" smooth="yes"/>
      <point x="232" y="572"/>
      <point x="298" y="638"/>
      <point x="316" y="732" type="curve"/>
      <point x="234" y="748" type="line"/>
      <point x="219" y="702"/>
      <point x="186" y="668"/>
      <point x="132" y="668" type="curve" smooth="yes"/>
      <point x="78" y="668"/>
      <point x="57" y="702"/>
      <point x="58" y="748" type="curve"/>
      <point x="-32" y="732" type="line"/>
      <point x="-46" y="638"/>
      <point x="-3" y="572"/>
    </contour>
    <contour>
      <point x="128" y="705" type="line"/>
      <point x="211" y="748" type="line"/>
      <point x="142" y="903" type="line"/>
      <point x="29" y="838" type="line"/>
    </contour>
  </outline>
</glyph>
<glyph name="brevehoi.cap" format="1">
	<outline>
		<contour>
			<point x="122" y="694" type="curve" smooth="yes"/>
			<point x="224" y="694"/>
			<point x="291" y="738"/>
			<point x="319" y="834" type="curve"/>
			<point x="240" y="850" type="line"/>
			<point x="221" y="804"/>
			<point x="184" y="782"/>
			<point x="139" y="782" type="curve" smooth="yes"/>
			<point x="94" y="782"/>
			<point x="66" y="804"/>
			<point x="64" y="850" type="curve"/>
			<point x="-21" y="834" type="line"/>
			<point x="-29" y="738"/>
			<point x="20" y="694"/>
		</contour>
		<contour>
			<point x="108" y="808" type="line"/>
			<point x="180" y="812"/>
			<point x="238" y="836"/>
			<point x="250" y="898" type="curve" smooth="yes"/>
			<point x="258" y="942"/>
			<point x="231" y="978"/>
			<point x="110" y="982" type="curve"/>
			<point x="81" y="914" type="line"/>
			<point x="131" y="910"/>
			<point x="142" y="900"/>
			<point x="139" y="884" type="curve" smooth="yes"/>
			<point x="136" y="868"/>
			<point x="123" y="863"/>
			<point x="106" y="860" type="curve"/>
		</contour>
		<contour>
			<point name="_aboveUC" x="135" y="682" type="move"/>
		</contour>
	</outline>
</glyph>
<glyph name="brevehoi" format="1">
  <advance width="0"/>
  <outline>
    <contour>
      <point x="114" y="522" type="move" name="_aboveLC"/>
    </contour>
    <contour>
      <point x="90" y="708" type="line"/>
      <point x="162" y="710"/>
      <point x="221" y="724"/>
      <point x="233" y="794" type="curve" smooth="yes"/>
      <point x="243" y="851"/>
      <point x="214" y="895"/>
      <point x="94" y="909" type="curve"/>
      <point x="62" y="821" type="line"/>
      <point x="112" y="812"/>
      <point x="124" y="801"/>
      <point x="120" y="786" type="curve" smooth="yes"/>
      <point x="118" y="770"/>
      <point x="107" y="766"/>
      <point x="90" y="764" type="curve"/>
    </contour>
    <contour>
      <point x="114" y="572" type="curve" smooth="yes"/>
      <point x="232" y="572"/>
      <point x="298" y="638"/>
      <point x="316" y="732" type="curve"/>
      <point x="234" y="748" type="line"/>
      <point x="219" y="702"/>
      <point x="186" y="668"/>
      <point x="132" y="668" type="curve" smooth="yes"/>
      <point x="78" y="668"/>
      <point x="57" y="702"/>
      <point x="58" y="748" type="curve"/>
      <point x="-32" y="732" type="line"/>
      <point x="-46" y="638"/>
      <point x="-3" y="572"/>
    </contour>
  </outline>
</glyph>
<glyph name="brevetilde.cap" format="1">
  <advance width="0"/>
  <outline>
    <contour>
      <point x="136" y="682" type="move" name="_aboveUC"/>
    </contour>
    <contour>
      <point x="128" y="700" type="curve" smooth="yes"/>
      <point x="230" y="700"/>
      <point x="288" y="742"/>
      <point x="310" y="814" type="curve"/>
      <point x="232" y="828" type="line"/>
      <point x="218" y="802"/>
      <point x="193" y="780"/>
      <point x="142" y="780" type="curve" smooth="yes"/>
      <point x="90" y="780"/>
      <point x="73" y="802"/>
      <point x="68" y="828" type="curve"/>
      <point x="-14" y="814" type="line"/>
      <point x="-20" y="742"/>
      <point x="25" y="700"/>
    </contour>
    <contour>
      <point x="0" y="864" type="curve"/>
      <point x="78" y="854" type="line"/>
      <point x="86" y="880"/>
      <point x="98" y="890"/>
      <point x="114" y="890" type="curve" smooth="yes"/>
      <point x="136" y="890"/>
      <point x="160" y="848"/>
      <point x="212" y="848" type="curve" smooth="yes"/>
      <point x="268" y="848"/>
      <point x="311" y="881"/>
      <point x="330" y="966" type="curve"/>
      <point x="252" y="976" type="line"/>
      <point x="244" y="950"/>
      <point x="232" y="940"/>
      <point x="216" y="940" type="curve" smooth="yes"/>
      <point x="194" y="940"/>
      <point x="170" y="982"/>
      <point x="118" y="982" type="curve" smooth="yes"/>
      <point x="62" y="982"/>
      <point x="18" y="949"/>
    </contour>
  </outline>
</glyph>
<glyph name="c.sups" format="1">
  <advance width="298"/>
  <outline>
    <contour>
      <point x="185" y="252" type="curve" smooth="yes"/>
      <point x="230" y="252"/>
      <point x="270" y="270"/>
      <point x="290" y="287" type="curve"/>
      <point x="255" y="356" type="line"/>
      <point x="242" y="348"/>
      <point x="231" y="339"/>
      <point x="210" y="339" type="curve" smooth="yes"/>
      <point x="185" y="339"/>
      <point x="163" y="357"/>
      <point x="163" y="397" type="curve" smooth="yes"/>
      <point x="163" y="458"/>
      <point x="199" y="512"/>
      <point x="246" y="512" type="curve" smooth="yes"/>
      <point x="261" y="512"/>
      <point x="270" y="506"/>
      <point x="281" y="493" type="curve"/>
      <point x="344" y="560" type="line"/>
      <point x="324" y="580"/>
      <point x="291" y="600"/>
      <point x="250" y="600" type="curve" smooth="yes"/>
      <point x="135" y="600"/>
      <point x="50" y="501"/>
      <point x="50" y="384" type="curve" smooth="yes"/>
      <point x="50" y="301"/>
      <point x="111" y="252"/>
    </contour>
  </outline>
</glyph>
<glyph name="caron.alt" format="1">
  <outline>
    <contour>
      <point x="16" y="548" type="line"/>
      <point x="84" y="548" type="line"/>
      <point x="140" y="700" type="line"/>
      <point x="156" y="774" type="line"/>
      <point x="56" y="774" type="line"/>
    </contour>
  </outline>
</glyph>
<glyph name="caroncmb.cap" format="1">
  <advance width="0"/>
  <outline>
    <contour>
      <point x="136" y="682" type="move" name="_aboveUC"/>
    </contour>
    <contour>
      <point x="24" y="700" type="line"/>
      <point x="212" y="700" type="line"/>
      <point x="316" y="810" type="line"/>
      <point x="250" y="854" type="line"/>
      <point x="134" y="774" type="line"/>
      <point x="130" y="774" type="line"/>
      <point x="42" y="854" type="line"/>
      <point x="-40" y="810" type="line"/>
    </contour>
  </outline>
</glyph>
<glyph name="caroncmb" format="1">
  <advance width="0"/>
  <outline>
    <contour>
      <point x="114" y="522" type="move" name="_aboveLC"/>
    </contour>
    <contour>
      <point x="14" y="580" type="line"/>
      <point x="190" y="580" type="line"/>
      <point x="318" y="704" type="line"/>
      <point x="264" y="768" type="line"/>
      <point x="114" y="680" type="line"/>
      <point x="110" y="680" type="line"/>
      <point x="0" y="768" type="line"/>
      <point x="-70" y="708" type="line"/>
    </contour>
  </outline>
</glyph>
<glyph name="caroncmb.cap" format="1">
  <advance width="0"/>
  <outline>
    <contour>
      <point x="136" y="682" type="move" name="_aboveUC"/>
    </contour>
    <contour>
      <point x="24" y="700" type="line"/>
      <point x="212" y="700" type="line"/>
      <point x="316" y="804" type="line"/>
      <point x="250" y="854" type="line"/>
      <point x="126" y="774" type="line"/>
      <point x="122" y="774" type="line"/>
      <point x="38" y="854" type="line"/>
      <point x="-40" y="810" type="line"/>
    </contour>
  </outline>
</glyph>
<glyph name="cedillacmb" format="1">
  <outline>
    <contour>
      <point x="-150" y="-244" type="line"/>
      <point x="-16" y="-240"/>
      <point x="66" y="-208"/>
      <point x="80" y="-136" type="curve" smooth="yes"/>
      <point x="86" y="-94"/>
      <point x="64" y="-72"/>
      <point x="14" y="-60" type="curve"/>
      <point x="54" y="4" type="line"/>
      <point x="-44" y="4" type="line"/>
      <point x="-112" y="-96" type="line"/>
      <point x="-52" y="-104"/>
      <point x="-40" y="-118"/>
      <point x="-42" y="-136" type="curve" smooth="yes"/>
      <point x="-48" y="-164"/>
      <point x="-74" y="-174"/>
      <point x="-150" y="-178" type="curve"/>
    </contour>
    <contour>
      <point x="0" y="0" type="move" name="_baseLC"/>
    </contour>
  </outline>
</glyph>
<glyph name="circumflexacute" format="1">
  <advance width="0"/>
  <outline>
    <contour>
      <point x="114" y="522" type="move" name="_aboveLC"/>
    </contour>
    <contour>
      <point x="12" y="564" type="line"/>
      <point x="126" y="626" type="line"/>
      <point x="130" y="626" type="line"/>
      <point x="220" y="564" type="line"/>
      <point x="286" y="624" type="line"/>
      <point x="212" y="716" type="line"/>
      <point x="76" y="716" type="line"/>
      <point x="-30" y="624" type="line"/>
    </contour>
    <contour>
      <point x="252" y="696" type="line"/>
      <point x="306" y="641" type="line"/>
      <point x="429" y="752" type="line"/>
      <point x="350" y="818" type="line"/>
    </contour>
  </outline>
</glyph>
<glyph name="circumflexacute.cap" format="1">
  <advance width="0"/>
  <outline>
    <contour>
      <point x="135" y="682" type="move" name="_aboveUC"/>
    </contour>
    <contour>
      <point x="28" y="680" type="line"/>
      <point x="132" y="752" type="line"/>
      <point x="136" y="752" type="line"/>
      <point x="216" y="680" type="line"/>
      <point x="290" y="724" type="line"/>
      <point x="220" y="828" type="line"/>
      <point x="72" y="828" type="line"/>
      <point x="-34" y="724" type="line"/>
    </contour>
    <contour>
      <point x="286" y="761" type="line"/>
      <point x="404" y="823" type="line"/>
      <point x="362" y="895" type="line"/>
      <point x="246" y="821" type="line"/>
    </contour>
  </outline>
</glyph>
<glyph name="circumflexbreve.cap" format="1">
  <advance width="0"/>
  <outline>
    <contour>
      <point x="135" y="682" type="move" name="_aboveUC"/>
    </contour>
    <contour>
      <point x="28" y="680" type="line"/>
      <point x="132" y="752" type="line"/>
      <point x="136" y="752" type="line"/>
      <point x="216" y="680" type="line"/>
      <point x="288" y="724" type="line"/>
      <point x="220" y="818" type="line"/>
      <point x="72" y="818" type="line"/>
      <point x="-28" y="724" type="line"/>
    </contour>
    <contour>
      <point x="152" y="854" type="curve" smooth="yes"/>
      <point x="254" y="854"/>
      <point x="314" y="896"/>
      <point x="334" y="968" type="curve"/>
      <point x="256" y="982" type="line"/>
      <point x="243" y="956"/>
      <point x="218" y="934"/>
      <point x="166" y="934" type="curve" smooth="yes"/>
      <point x="114" y="934"/>
      <point x="97" y="956"/>
      <point x="92" y="982" type="curve"/>
      <point x="10" y="968" type="line"/>
      <point x="6" y="896"/>
      <point x="50" y="854"/>
    </contour>
  </outline>
</glyph>
<glyph name="circumflexcmb.cap" format="1">
  <advance width="0"/>
  <outline>
    <contour>
      <point x="136" y="682" type="move" name="_aboveUC"/>
    </contour>
    <contour>
      <point x="16" y="680" type="line"/>
      <point x="132" y="760" type="line"/>
      <point x="136" y="760" type="line"/>
      <point x="224" y="680" type="line"/>
      <point x="306" y="724" type="line"/>
      <point x="242" y="834" type="line"/>
      <point x="54" y="834" type="line"/>
      <point x="-50" y="724" type="line"/>
    </contour>
  </outline>
</glyph>
<glyph name="circumflexcmb" format="1">
  <advance width="0"/>
  <outline>
    <contour>
      <point x="114" y="522" type="move" name="_aboveLC"/>
    </contour>
    <contour>
      <point x="154" y="740" type="move" name="aboveLC"/>
    </contour>
    <contour>
      <point x="-16" y="558" type="line"/>
      <point x="134" y="646" type="line"/>
      <point x="138" y="646" type="line"/>
      <point x="248" y="558" type="line"/>
      <point x="318" y="618" type="line"/>
      <point x="234" y="746" type="line"/>
      <point x="58" y="746" type="line"/>
      <point x="-70" y="622" type="line"/>
    </contour>
  </outline>
</glyph>
<glyph name="circumflexgrave" format="1">
  <advance width="0"/>
  <outline>
    <contour>
      <point x="114" y="522" type="move" name="_aboveLC"/>
    </contour>
    <contour>
      <point x="12" y="564" type="line"/>
      <point x="126" y="626" type="line"/>
      <point x="130" y="626" type="line"/>
      <point x="220" y="564" type="line"/>
      <point x="286" y="624" type="line"/>
      <point x="212" y="716" type="line"/>
      <point x="76" y="716" type="line"/>
      <point x="-30" y="624" type="line"/>
    </contour>
    <contour>
      <point x="-5" y="681" type="line"/>
      <point x="-58" y="816" type="line"/>
      <point x="-158" y="767" type="line"/>
      <point x="-78" y="637" type="line"/>
    </contour>
  </outline>
</glyph>
<glyph name="circumflexhoi.cap" format="1">
  <advance width="0"/>
  <outline>
    <contour>
      <point x="135" y="682" type="move" name="_aboveUC"/>
    </contour>
    <contour>
      <point x="28" y="680" type="line"/>
      <point x="132" y="752" type="line"/>
      <point x="136" y="752" type="line"/>
      <point x="216" y="680" type="line"/>
      <point x="290" y="724" type="line"/>
      <point x="220" y="828" type="line"/>
      <point x="72" y="828" type="line"/>
      <point x="-34" y="724" type="line"/>
    </contour>
    <contour>
      <point x="265" y="753" type="line"/>
      <point x="337" y="750"/>
      <point x="394" y="769"/>
      <point x="404" y="831" type="curve" smooth="yes"/>
      <point x="412" y="874"/>
      <point x="384" y="913"/>
      <point x="264" y="927" type="curve"/>
      <point x="236" y="862" type="line"/>
      <point x="285" y="853"/>
      <point x="297" y="842"/>
      <point x="294" y="826" type="curve" smooth="yes"/>
      <point x="292" y="810"/>
      <point x="278" y="807"/>
      <point x="262" y="805" type="curve"/>
    </contour>
  </outline>
</glyph>
<glyph name="circumflexhoi" format="1">
  <advance width="0"/>
  <outline>
    <contour>
      <point x="114" y="522" type="move" name="_aboveLC"/>
    </contour>
    <contour>
      <point x="12" y="564" type="line"/>
      <point x="126" y="626" type="line"/>
      <point x="130" y="626" type="line"/>
      <point x="220" y="564" type="line"/>
      <point x="286" y="624" type="line"/>
      <point x="212" y="716" type="line"/>
      <point x="76" y="716" type="line"/>
      <point x="-30" y="624" type="line"/>
    </contour>
    <contour>
      <point x="260" y="653" type="line"/>
      <point x="332" y="655"/>
      <point x="391" y="669"/>
      <point x="403" y="739" type="curve" smooth="yes"/>
      <point x="411" y="784"/>
      <point x="381" y="819"/>
      <point x="260" y="833" type="curve"/>
      <point x="232" y="766" type="line"/>
      <point x="282" y="757"/>
      <point x="294" y="746"/>
      <point x="290" y="730" type="curve" smooth="yes"/>
      <point x="288" y="715"/>
      <point x="276" y="711"/>
      <point x="260" y="709" type="curve"/>
    </contour>
  </outline>
</glyph>
<glyph name="circumflextilde.cap" format="1">
  <advance width="0"/>
  <outline>
    <contour>
      <point x="135" y="682" type="move" name="_aboveUC"/>
    </contour>
    <contour>
      <point x="26" y="680" type="line"/>
      <point x="130" y="742" type="line"/>
      <point x="134" y="742" type="line"/>
      <point x="214" y="680" type="line"/>
      <point x="290" y="724" type="line"/>
      <point x="218" y="818" type="line"/>
      <point x="70" y="818" type="line"/>
      <point x="-34" y="724" type="line"/>
    </contour>
    <contour>
      <point x="206" y="838" type="curve" smooth="yes"/>
      <point x="262" y="838"/>
      <point x="306" y="871"/>
      <point x="324" y="956" type="curve"/>
      <point x="246" y="966" type="line"/>
      <point x="238" y="940"/>
      <point x="226" y="930"/>
      <point x="210" y="930" type="curve" smooth="yes"/>
      <point x="188" y="930"/>
      <point x="166" y="972"/>
      <point x="114" y="972" type="curve" smooth="yes"/>
      <point x="58" y="972"/>
      <point x="14" y="939"/>
      <point x="-6" y="854" type="curve"/>
      <point x="74" y="844" type="line"/>
      <point x="82" y="870"/>
      <point x="94" y="880"/>
      <point x="110" y="880" type="curve" smooth="yes"/>
      <point x="132" y="880"/>
      <point x="154" y="838"/>
    </contour>
  </outline>
</glyph>
<glyph name="circumflextilde" format="1">
  <advance width="0"/>
  <outline>
    <contour>
      <point x="114" y="522" type="move" name="_aboveLC"/>
    </contour>
    <contour>
      <point x="16" y="564" type="line"/>
      <point x="128" y="620" type="line"/>
      <point x="132" y="620" type="line"/>
      <point x="224" y="564" type="line"/>
      <point x="286" y="620" type="line"/>
      <point x="208" y="706" type="line"/>
      <point x="72" y="706" type="line"/>
      <point x="-30" y="628" type="line"/>
    </contour>
    <contour>
      <point x="200" y="718" type="curve" smooth="yes"/>
      <point x="252" y="718"/>
      <point x="293" y="752"/>
      <point x="316" y="838" type="curve"/>
      <point x="242" y="846" type="line"/>
      <point x="232" y="820"/>
      <point x="220" y="810"/>
      <point x="206" y="810" type="curve" smooth="yes"/>
      <point x="180" y="810"/>
      <point x="166" y="852"/>
      <point x="112" y="852" type="curve" smooth="yes"/>
      <point x="60" y="852"/>
      <point x="19" y="818"/>
      <point x="-6" y="732" type="curve"/>
      <point x="68" y="724" type="line"/>
      <point x="80" y="750"/>
      <point x="92" y="760"/>
      <point x="106" y="760" type="curve" smooth="yes"/>
      <point x="132" y="760"/>
      <point x="146" y="718"/>
    </contour>
  </outline>
</glyph>
<glyph name="commabelowcmb.alt" format="1">
  <advance width="0"/>
  <outline>
    <contour>
      <point x="63" y="522" type="move" name="_aboveLC"/>
    </contour>
    <contour>
      <point x="104" y="563" type="curve"/>
      <point x="156" y="615" type="line"/>
      <point x="114" y="626"/>
      <point x="102" y="641"/>
      <point x="110" y="656" type="curve" smooth="yes"/>
      <point x="116" y="678"/>
      <point x="142" y="683"/>
      <point x="219" y="674" type="curve"/>
      <point x="229" y="739" type="line"/>
      <point x="98" y="758"/>
      <point x="12" y="741"/>
      <point x="-13" y="672" type="curve" smooth="yes"/>
      <point x="-30" y="623"/>
      <point x="-5" y="590"/>
    </contour>
  </outline>
</glyph>
<glyph name="commabelowcmb" format="1">
  <advance width="0"/>
  <outline>
    <contour>
      <point x="-6" y="-30" type="move" name="_belowLC"/>
    </contour>
    <contour>
      <point x="-151" y="-244" type="line"/>
      <point x="-18" y="-240"/>
      <point x="82" y="-206"/>
      <point x="82" y="-124" type="curve" smooth="yes"/>
      <point x="82" y="-85"/>
      <point x="58" y="-54"/>
      <point x="-53" y="-50" type="curve"/>
      <point x="-97" y="-110" type="line"/>
      <point x="-54" y="-110"/>
      <point x="-43" y="-126"/>
      <point x="-43" y="-138" type="curve" smooth="yes"/>
      <point x="-43" y="-160"/>
      <point x="-71" y="-174"/>
      <point x="-148" y="-178" type="curve"/>
    </contour>
  </outline>
</glyph>
<glyph name="d.sups" format="1">
  <advance width="386"/>
  <outline>
    <contour>
      <point x="296" y="670" type="line"/>
      <point x="292" y="670" type="line"/>
      <point x="282" y="690"/>
      <point x="258" y="708"/>
      <point x="230" y="708" type="curve" smooth="yes"/>
      <point x="138" y="708"/>
      <point x="52" y="608"/>
      <point x="52" y="482" type="curve" smooth="yes"/>
      <point x="52" y="404"/>
      <point x="88" y="360"/>
      <point x="146" y="360" type="curve" smooth="yes"/>
      <point x="177" y="360"/>
      <point x="216" y="378"/>
      <point x="244" y="408" type="curve"/>
      <point x="248" y="408" type="line"/>
      <point x="248" y="368" type="line"/>
      <point x="338" y="368" type="line"/>
      <point x="430" y="828" type="line"/>
      <point x="318" y="828" type="line"/>
      <point x="300" y="736" type="line"/>
    </contour>
    <contour>
      <point x="194" y="450" type="curve" smooth="yes"/>
      <point x="178" y="450"/>
      <point x="166" y="464"/>
      <point x="166" y="496" type="curve" smooth="yes"/>
      <point x="166" y="568"/>
      <point x="202" y="618"/>
      <point x="238" y="618" type="curve" smooth="yes"/>
      <point x="249" y="618"/>
      <point x="263" y="610"/>
      <point x="270" y="594" type="curve"/>
      <point x="252" y="492" type="line"/>
      <point x="234" y="458"/>
      <point x="212" y="450"/>
    </contour>
  </outline>
</glyph>
<glyph name="dblgravecmb.cap" format="1">
  <outline>
    <contour>
      <point x="-16" y="689" type="line"/>
      <point x="75" y="721" type="line"/>
      <point x="0" y="893" type="line"/>
      <point x="-118" y="843" type="line"/>
    </contour>
    <contour>
      <point x="182" y="689" type="line"/>
      <point x="273" y="721" type="line"/>
      <point x="198" y="893" type="line"/>
      <point x="80" y="843" type="line"/>
    </contour>
    <contour>
      <point x="136" y="682" type="move" name="_aboveUC"/>
    </contour>
  </outline>
</glyph>
<glyph name="dblgravecmb" format="1">
  <advance width="0"/>
  <outline>
    <contour>
      <point x="114" y="522" type="move" name="_aboveLC"/>
    </contour>
    <contour>
      <point x="-40" y="564" type="line"/>
      <point x="57" y="596" type="line"/>
      <point x="2" y="786" type="line"/>
      <point x="-121" y="746" type="line"/>
    </contour>
    <contour>
      <point x="150" y="564" type="line"/>
      <point x="247" y="596" type="line"/>
      <point x="192" y="786" type="line"/>
      <point x="69" y="746" type="line"/>
    </contour>
  </outline>
</glyph>
<glyph name="dblgravecmb.cap" format="1">
  <advance width="0"/>
  <outline>
    <contour>
      <point x="136" y="682" type="move" name="_aboveUC"/>
    </contour>
    <contour>
      <point x="-16" y="689" type="line"/>
      <point x="75" y="721" type="line"/>
      <point x="0" y="893" type="line"/>
      <point x="-118" y="843" type="line"/>
    </contour>
    <contour>
      <point x="182" y="689" type="line"/>
      <point x="273" y="721" type="line"/>
      <point x="198" y="893" type="line"/>
      <point x="80" y="843" type="line"/>
    </contour>
  </outline>
</glyph>
<glyph name="dcroat" format="1">
  <advance width="556"/>
  <outline>
    <contour>
      <point x="168" y="-12" type="curve" smooth="yes"/>
      <point x="216" y="-12"/>
      <point x="274" y="16"/>
      <point x="318" y="62" type="curve"/>
      <point x="320" y="62" type="line"/>
      <point x="320" y="0" type="line"/>
      <point x="450" y="0" type="line"/>
      <point x="590" y="696" type="line"/>
      <point x="430" y="696" type="line"/>
      <point x="398" y="530" type="line"/>
      <point x="388" y="436" type="line"/>
      <point x="386" y="436" type="line"/>
      <point x="370" y="470"/>
      <point x="336" y="492"/>
      <point x="294" y="492" type="curve" smooth="yes"/>
      <point x="156" y="492"/>
      <point x="28" y="340"/>
      <point x="28" y="172" type="curve" smooth="yes"/>
      <point x="28" y="54"/>
      <point x="80" y="-12"/>
    </contour>
    <contour>
      <point x="240" y="118" type="curve" smooth="yes"/>
      <point x="212" y="118"/>
      <point x="194" y="140"/>
      <point x="194" y="192" type="curve" smooth="yes"/>
      <point x="194" y="282"/>
      <point x="248" y="362"/>
      <point x="306" y="362" type="curve" smooth="yes"/>
      <point x="324" y="362"/>
      <point x="346" y="350"/>
      <point x="356" y="324" type="curve"/>
      <point x="328" y="184" type="line"/>
      <point x="300" y="130"/>
      <point x="266" y="118"/>
    </contour>
    <contour>
      <point x="264" y="552" type="line"/>
      <point x="554" y="552" type="line"/>
      <point x="626" y="558" type="line"/>
      <point x="642" y="628" type="line"/>
      <point x="278" y="628" type="line"/>
    </contour>
  </outline>
</glyph>
<glyph name="diamondblack" format="1">
  <advance width="340"/>
  <outline>
    <contour>
      <point x="170" y="94" type="line"/>
      <point x="334" y="262" type="line"/>
      <point x="170" y="430" type="line"/>
      <point x="6" y="262" type="line"/>
    </contour>
  </outline>
</glyph>
<glyph name="dieresisacute" format="1">
  <advance width="0"/>
  <outline>
    <contour>
      <point x="66" y="522" type="move" name="_aboveLC"/>
    </contour>
    <contour>
      <point x="114" y="719" type="line"/>
      <point x="237" y="830" type="line"/>
      <point x="158" y="896" type="line"/>
      <point x="58" y="764" type="line"/>
    </contour>
    <contour>
      <point x="-42" y="566" type="curve" smooth="yes"/>
      <point x="2" y="566"/>
      <point x="34" y="602"/>
      <point x="34" y="644" type="curve" smooth="yes"/>
      <point x="34" y="674"/>
      <point x="12" y="696"/>
      <point x="-22" y="696" type="curve" smooth="yes"/>
      <point x="-64" y="696"/>
      <point x="-96" y="662"/>
      <point x="-96" y="620" type="curve" smooth="yes"/>
      <point x="-96" y="590"/>
      <point x="-74" y="566"/>
    </contour>
    <contour>
      <point x="176" y="566" type="curve" smooth="yes"/>
      <point x="218" y="566"/>
      <point x="250" y="602"/>
      <point x="250" y="644" type="curve" smooth="yes"/>
      <point x="250" y="674"/>
      <point x="228" y="696"/>
      <point x="196" y="696" type="curve" smooth="yes"/>
      <point x="154" y="696"/>
      <point x="122" y="662"/>
      <point x="122" y="620" type="curve" smooth="yes"/>
      <point x="122" y="590"/>
      <point x="144" y="566"/>
    </contour>
  </outline>
</glyph>
<glyph name="dieresiscaron" format="1">
  <advance width="0"/>
  <outline>
    <contour>
      <point x="66" y="522" type="move" name="_aboveLC"/>
    </contour>
    <contour>
      <point x="20" y="886" type="line"/>
      <point x="-42" y="836" type="line"/>
      <point x="32" y="744" type="line"/>
      <point x="168" y="744" type="line"/>
      <point x="274" y="836" type="line"/>
      <point x="228" y="886" type="line"/>
      <point x="116" y="824" type="line"/>
      <point x="112" y="824" type="line"/>
    </contour>
    <contour>
      <point x="-42" y="566" type="curve" smooth="yes"/>
      <point x="2" y="566"/>
      <point x="34" y="602"/>
      <point x="34" y="644" type="curve" smooth="yes"/>
      <point x="34" y="674"/>
      <point x="12" y="696"/>
      <point x="-22" y="696" type="curve" smooth="yes"/>
      <point x="-64" y="696"/>
      <point x="-96" y="662"/>
      <point x="-96" y="620" type="curve" smooth="yes"/>
      <point x="-96" y="590"/>
      <point x="-74" y="566"/>
    </contour>
    <contour>
      <point x="176" y="566" type="curve" smooth="yes"/>
      <point x="218" y="566"/>
      <point x="250" y="602"/>
      <point x="250" y="644" type="curve" smooth="yes"/>
      <point x="250" y="674"/>
      <point x="228" y="696"/>
      <point x="196" y="696" type="curve" smooth="yes"/>
      <point x="154" y="696"/>
      <point x="122" y="662"/>
      <point x="122" y="620" type="curve" smooth="yes"/>
      <point x="122" y="590"/>
      <point x="144" y="566"/>
    </contour>
  </outline>
</glyph>
<glyph name="dieresisgrave" format="1">
  <advance width="0"/>
  <outline>
    <contour>
      <point x="66" y="522" type="move" name="_aboveLC"/>
    </contour>
    <contour>
      <point x="82" y="715" type="line"/>
      <point x="153" y="749" type="line"/>
      <point x="102" y="894" type="line"/>
      <point x="2" y="845" type="line"/>
    </contour>
    <contour>
      <point x="-42" y="566" type="curve" smooth="yes"/>
      <point x="2" y="566"/>
      <point x="34" y="602"/>
      <point x="34" y="644" type="curve" smooth="yes"/>
      <point x="34" y="674"/>
      <point x="12" y="696"/>
      <point x="-22" y="696" type="curve" smooth="yes"/>
      <point x="-64" y="696"/>
      <point x="-96" y="662"/>
      <point x="-96" y="620" type="curve" smooth="yes"/>
      <point x="-96" y="590"/>
      <point x="-74" y="566"/>
    </contour>
    <contour>
      <point x="176" y="566" type="curve" smooth="yes"/>
      <point x="218" y="566"/>
      <point x="250" y="602"/>
      <point x="250" y="644" type="curve" smooth="yes"/>
      <point x="250" y="674"/>
      <point x="228" y="696"/>
      <point x="196" y="696" type="curve" smooth="yes"/>
      <point x="154" y="696"/>
      <point x="122" y="662"/>
      <point x="122" y="620" type="curve" smooth="yes"/>
      <point x="122" y="590"/>
      <point x="144" y="566"/>
    </contour>
  </outline>
</glyph>
<glyph name="dotaccentcmb.cap" format="1">
  <advance width="0"/>
  <outline>
    <contour>
      <point x="136" y="682" type="move" name="_aboveUC"/>
    </contour>
    <contour>
      <point x="130" y="698" type="curve" smooth="yes"/>
      <point x="184" y="698"/>
      <point x="226" y="736"/>
      <point x="226" y="788" type="curve" smooth="yes"/>
      <point x="226" y="836"/>
      <point x="184" y="862"/>
      <point x="142" y="862" type="curve" smooth="yes"/>
      <point x="88" y="862"/>
      <point x="46" y="820"/>
      <point x="46" y="772" type="curve" smooth="yes"/>
      <point x="46" y="722"/>
      <point x="88" y="698"/>
    </contour>
  </outline>
</glyph>
<glyph name="dotlessi" format="1">
  <advance width="276"/>
  <outline>
    <contour>
      <point x="80" y="0" type="move" name="ogonekLC"/>
    </contour>
    <contour>
      <point x="198" y="522" type="move" name="aboveLC"/>
    </contour>
    <contour>
      <point x="94" y="-22" type="move" name="belowLC"/>
    </contour>
    <contour>
      <point x="8" y="0" type="line"/>
      <point x="168" y="0" type="line"/>
      <point x="268" y="500" type="line"/>
      <point x="108" y="500" type="line"/>
    </contour>
  </outline>
</glyph>
<glyph name="eacute.sups" format="1">
  <advance width="336"/>
  <outline>
    <contour>
      <point x="190" y="747" type="line"/>
      <point x="272" y="747" type="line"/>
      <point x="376" y="848" type="line"/>
      <point x="267" y="848" type="line"/>
    </contour>
    <component base="e.sups"/>
  </outline>
</glyph>
<glyph name="eacute.sups" format="1">
  <advance width="336"/>
  <outline>
    <contour>
      <point x="194" y="806" type="line"/>
      <point x="242" y="748" type="line"/>
      <point x="390" y="838" type="line"/>
      <point x="324" y="920" type="line"/>
    </contour>
    <component base="e.sups"/>
  </outline>
</glyph>
<glyph name="egrave.sups" format="1">
  <advance width="336"/>
  <outline>
    <contour>
      <point x="228" y="639" type="line"/>
      <point x="304" y="639" type="line"/>
      <point x="266" y="740" type="line"/>
      <point x="166" y="740" type="line"/>
    </contour>
    <component base="e.sups"/>
  </outline>
</glyph>
<glyph name="gravecmb" format="1">
  <advance width="0"/>
  <outline>
    <contour>
      <point x="114" y="522" type="move" name="_aboveLC"/>
    </contour>
    <contour>
      <point x="146" y="569" type="line"/>
      <point x="244" y="645" type="line"/>
      <point x="120" y="844" type="line"/>
      <point x="-16" y="742" type="line"/>
    </contour>
  </outline>
</glyph>
<glyph name="gravecmb.cap" format="1">
  <advance width="0"/>
  <outline>
    <contour>
      <point x="136" y="682" type="move" name="_aboveUC"/>
    </contour>
    <contour>
      <point x="158" y="670" type="line"/>
      <point x="248" y="748" type="line"/>
      <point x="92" y="907" type="line"/>
      <point x="-17" y="806" type="line"/>
    </contour>
  </outline>
</glyph>
<glyph name="guarani" format="1">
  <advance width="520"/>
  <outline>
    <contour>
      <point x="256" y="-12" type="curve" smooth="yes"/>
      <point x="334" y="-12"/>
      <point x="400" y="26"/>
      <point x="448" y="66" type="curve"/>
      <point x="508" y="368" type="line"/>
      <point x="310" y="368" type="line"/>
      <point x="284" y="238" type="line"/>
      <point x="342" y="238" type="line"/>
      <point x="318" y="126" type="line"/>
      <point x="308" y="118"/>
      <point x="294" y="116"/>
      <point x="284" y="116" type="curve" smooth="yes"/>
      <point x="228" y="116"/>
      <point x="198" y="166"/>
      <point x="198" y="252" type="curve" smooth="yes"/>
      <point x="198" y="398"/>
      <point x="260" y="528"/>
      <point x="372" y="528" type="curve" smooth="yes"/>
      <point x="398" y="528"/>
      <point x="414" y="512"/>
      <point x="428" y="482" type="curve"/>
      <point x="542" y="558" type="line"/>
      <point x="508" y="616"/>
      <point x="462" y="656"/>
      <point x="388" y="656" type="curve" smooth="yes"/>
      <point x="198" y="656"/>
      <point x="38" y="490"/>
      <point x="38" y="242" type="curve" smooth="yes"/>
      <point x="38" y="78"/>
      <point x="120" y="-12"/>
    </contour>
    <contour>
      <point x="176" y="-110" type="line"/>
      <point x="280" y="-110" type="line"/>
      <point x="314" y="54" type="line"/>
      <point x="208" y="54" type="line"/>
    </contour>
    <contour>
      <point x="320" y="606" type="line"/>
      <point x="424" y="606" type="line"/>
      <point x="452" y="754" type="line"/>
      <point x="348" y="754" type="line"/>
    </contour>
  </outline>
</glyph>
<glyph name="h.sups" format="1">
  <advance width="375"/>
  <outline>
    <contour>
      <point x="38" y="260" type="line"/>
      <point x="150" y="260" type="line"/>
      <point x="191" y="470" type="line"/>
      <point x="213" y="494"/>
      <point x="229" y="506"/>
      <point x="247" y="506" type="curve" smooth="yes"/>
      <point x="263" y="506"/>
      <point x="273" y="497"/>
      <point x="273" y="479" type="curve" smooth="yes"/>
      <point x="273" y="472"/>
      <point x="271" y="464"/>
      <point x="268" y="451" type="curve" smooth="yes"/>
      <point x="230" y="260" type="line"/>
      <point x="342" y="260" type="line"/>
      <point x="383" y="465" type="line" smooth="yes"/>
      <point x="386" y="479"/>
      <point x="389" y="496"/>
      <point x="389" y="511" type="curve" smooth="yes"/>
      <point x="389" y="568"/>
      <point x="363" y="600"/>
      <point x="308" y="600" type="curve" smooth="yes"/>
      <point x="268" y="600"/>
      <point x="233" y="579"/>
      <point x="207" y="556" type="curve"/>
      <point x="204" y="556" type="line"/>
      <point x="223" y="624" type="line"/>
      <point x="242" y="720" type="line"/>
      <point x="130" y="720" type="line"/>
    </contour>
  </outline>
</glyph>
<glyph name="hbar" format="1">
  <advance width="556"/>
  <outline>
    <contour>
      <point x="8" y="0" type="line"/>
      <point x="168" y="0" type="line"/>
      <point x="226" y="300" type="line"/>
      <point x="262" y="338"/>
      <point x="286" y="356"/>
      <point x="314" y="356" type="curve" smooth="yes"/>
      <point x="340" y="356"/>
      <point x="356" y="342"/>
      <point x="356" y="314" type="curve" smooth="yes"/>
      <point x="356" y="302"/>
      <point x="352" y="288"/>
      <point x="348" y="270" type="curve" smooth="yes"/>
      <point x="294" y="0" type="line"/>
      <point x="454" y="0" type="line"/>
      <point x="512" y="290" type="line" smooth="yes"/>
      <point x="518" y="314"/>
      <point x="520" y="340"/>
      <point x="520" y="362" type="curve" smooth="yes"/>
      <point x="520" y="448"/>
      <point x="484" y="492"/>
      <point x="402" y="492" type="curve" smooth="yes"/>
      <point x="342" y="492"/>
      <point x="290" y="462"/>
      <point x="250" y="426" type="curve"/>
      <point x="246" y="426" type="line"/>
      <point x="270" y="514" type="line"/>
      <point x="308" y="696" type="line"/>
      <point x="148" y="696" type="line"/>
    </contour>
    <contour>
      <point x="52" y="552" type="line"/>
      <point x="434" y="552" type="line"/>
      <point x="450" y="628" type="line"/>
      <point x="140" y="628" type="line"/>
      <point x="66" y="622" type="line"/>
    </contour>
  </outline>
</glyph>
<glyph name="hoicmb.cap" format="1">
  <advance width="0"/>
  <outline>
    <contour>
      <point x="136" y="682" type="move" name="_aboveUC"/>
    </contour>
    <contour>
      <point x="74" y="694" type="line"/>
      <point x="156" y="691"/>
      <point x="230" y="716"/>
      <point x="243" y="787" type="curve" smooth="yes"/>
      <point x="252" y="841"/>
      <point x="217" y="882"/>
      <point x="80" y="898" type="curve"/>
      <point x="46" y="817" type="line"/>
      <point x="102" y="808"/>
      <point x="120" y="796"/>
      <point x="118" y="780" type="curve" smooth="yes"/>
      <point x="116" y="765"/>
      <point x="96" y="761"/>
      <point x="74" y="760" type="curve"/>
    </contour>
  </outline>
</glyph>
<glyph name="hoicmb" format="1">
  <advance width="0"/>
  <outline>
    <contour>
      <point x="114" y="522" type="move" name="_aboveLC"/>
    </contour>
    <contour>
      <point x="60" y="572" type="line"/>
      <point x="143" y="569"/>
      <point x="218" y="595"/>
      <point x="232" y="666" type="curve" smooth="yes"/>
      <point x="245" y="739"/>
      <point x="209" y="796"/>
      <point x="65" y="813" type="curve"/>
      <point x="36" y="711" type="line"/>
      <point x="92" y="702"/>
      <point x="110" y="686"/>
      <point x="106" y="665" type="curve" smooth="yes"/>
      <point x="102" y="645"/>
      <point x="83" y="640"/>
      <point x="61" y="638" type="curve"/>
    </contour>
  </outline>
</glyph>
<glyph name="hoicmb.cap" format="1">
  <advance width="0"/>
  <outline>
    <contour>
      <point x="136" y="682" type="move" name="_aboveUC"/>
    </contour>
    <contour>
      <point x="72" y="688" type="line"/>
      <point x="155" y="692"/>
      <point x="229" y="724"/>
      <point x="243" y="796" type="curve" smooth="yes"/>
      <point x="254" y="850"/>
      <point x="219" y="888"/>
      <point x="82" y="892" type="curve"/>
      <point x="45" y="808" type="line"/>
      <point x="103" y="804"/>
      <point x="121" y="794"/>
      <point x="118" y="778" type="curve" smooth="yes"/>
      <point x="115" y="762"/>
      <point x="96" y="757"/>
      <point x="73" y="754" type="curve"/>
    </contour>
  </outline>
</glyph>
<glyph name="horncmb" format="1">
  <advance width="0"/>
  <outline>
    <contour>
      <point x="100" y="500" type="move" name="_hornLC"/>
    </contour>
    <contour>
      <point x="80" y="424" type="line"/>
      <point x="222" y="436"/>
      <point x="278" y="495"/>
      <point x="278" y="568" type="curve" smooth="yes"/>
      <point x="278" y="590"/>
      <point x="274" y="612"/>
      <point x="264" y="634" type="curve"/>
      <point x="146" y="598" type="line"/>
      <point x="151" y="586"/>
      <point x="154" y="572"/>
      <point x="154" y="560" type="curve" smooth="yes"/>
      <point x="154" y="528"/>
      <point x="128" y="496"/>
      <point x="80" y="490" type="curve"/>
    </contour>
  </outline>
</glyph>
<glyph name="hungarumlautcmb.cap" format="1">
  <advance width="0"/>
  <outline>
    <contour>
      <point x="136" y="682" type="move" name="_aboveUC"/>
    </contour>
    <contour>
      <point x="68" y="693" type="line"/>
      <point x="221" y="824" type="line"/>
      <point x="124" y="893" type="line"/>
      <point x="-8" y="740" type="line"/>
    </contour>
    <contour>
      <point x="266" y="693" type="line"/>
      <point x="419" y="824" type="line"/>
      <point x="322" y="893" type="line"/>
      <point x="190" y="740" type="line"/>
    </contour>
  </outline>
</glyph>
<glyph name="hungarumlautcmb" format="1">
  <advance width="0"/>
  <outline>
    <contour>
      <point x="114" y="522" type="move" name="_aboveLC"/>
    </contour>
    <contour>
      <point x="68" y="566" type="line"/>
      <point x="210" y="728" type="line"/>
      <point x="106" y="788" type="line"/>
      <point x="-14" y="614" type="line"/>
    </contour>
    <contour>
      <point x="258" y="566" type="line"/>
      <point x="400" y="728" type="line"/>
      <point x="296" y="788" type="line"/>
      <point x="176" y="614" type="line"/>
    </contour>
  </outline>
</glyph>
<glyph name="i.sups" format="1">
  <advance width="186"/>
  <outline>
    <contour>
      <point x="176" y="740" type="curve" smooth="yes"/>
      <point x="212" y="740"/>
      <point x="242" y="768"/>
      <point x="242" y="800" type="curve" smooth="yes"/>
      <point x="242" y="834"/>
      <point x="214" y="850"/>
      <point x="184" y="850" type="curve" smooth="yes"/>
      <point x="148" y="850"/>
      <point x="118" y="822"/>
      <point x="118" y="790" type="curve" smooth="yes"/>
      <point x="118" y="756"/>
      <point x="146" y="740"/>
    </contour>
    <contour>
      <point x="38" y="368" type="line"/>
      <point x="150" y="368" type="line"/>
      <point x="216" y="700" type="line"/>
      <point x="104" y="700" type="line"/>
    </contour>
  </outline>
</glyph>
<glyph name="j" format="1">
  <advance width="278"/>
  <outline>
    <contour>
      <point x="-30" y="-188" type="curve" smooth="yes"/>
      <point x="94" y="-188"/>
      <point x="148" y="-102"/>
      <point x="170" y="2" type="curve" smooth="yes"/>
      <point x="270" y="500" type="line"/>
      <point x="110" y="500" type="line"/>
      <point x="12" y="10" type="line" smooth="yes"/>
      <point x="0" y="-42"/>
      <point x="-12" y="-62"/>
      <point x="-44" y="-62" type="curve" smooth="yes"/>
      <point x="-58" y="-62"/>
      <point x="-72" y="-58"/>
      <point x="-86" y="-50" type="curve"/>
      <point x="-134" y="-164" type="line"/>
      <point x="-98" y="-182"/>
      <point x="-66" y="-188"/>
    </contour>
    <contour>
      <point x="216" y="564" type="curve" smooth="yes"/>
      <point x="270" y="564"/>
      <point x="312" y="602"/>
      <point x="312" y="654" type="curve" smooth="yes"/>
      <point x="312" y="702"/>
      <point x="270" y="728"/>
      <point x="228" y="728" type="curve" smooth="yes"/>
      <point x="174" y="728"/>
      <point x="132" y="686"/>
      <point x="132" y="638" type="curve" smooth="yes"/>
      <point x="132" y="588"/>
      <point x="174" y="564"/>
    </contour>
    <contour>
      <point x="240" y="732" type="move" name="aboveLC"/>
    </contour>
    <contour>
      <point x="-8" y="-238" type="move" name="belowLC"/>
    </contour>
  </outline>
</glyph>
<glyph name="k.sups" format="1">
  <advance width="367"/>
  <outline>
    <contour>
      <point x="38" y="260" type="line"/>
      <point x="150" y="260" type="line"/>
      <point x="166" y="340" type="line"/>
      <point x="208" y="380" type="line"/>
      <point x="253" y="260" type="line"/>
      <point x="364" y="260" type="line"/>
      <point x="283" y="443" type="line"/>
      <point x="422" y="592" type="line"/>
      <point x="300" y="592" type="line"/>
      <point x="196" y="474" type="line"/>
      <point x="192" y="474" type="line"/>
      <point x="242" y="720" type="line"/>
      <point x="130" y="720" type="line"/>
    </contour>
  </outline>
</glyph>
<glyph name="l.supa" format="1">
  <advance width="186"/>
  <outline>
    <contour>
      <point x="38" y="260" type="line"/>
      <point x="150" y="260" type="line"/>
      <point x="242" y="720" type="line"/>
      <point x="130" y="720" type="line"/>
    </contour>
  </outline>
</glyph>
<glyph name="lslash.alt" format="1">
  <advance width="298"/>
  <outline>
    <contour>
      <point x="8" y="234" type="line"/>
      <point x="88" y="277" type="line"/>
      <point x="236" y="340" type="line"/>
      <point x="320" y="388" type="line"/>
      <point x="344" y="514" type="line"/>
      <point x="260" y="466" type="line"/>
      <point x="112" y="403" type="line"/>
      <point x="36" y="360" type="line"/>
    </contour>
    <component base="l.alt" xOffset="12"/>
  </outline>
</glyph>
<glyph name="lslash.alt" format="1">
  <advance width="298"/>
  <outline>
    <contour>
      <point x="28" y="246" type="line"/>
      <point x="79" y="272" type="line"/>
      <point x="221" y="332" type="line"/>
      <point x="362" y="406" type="line"/>
      <point x="324" y="500" type="line"/>
      <point x="248" y="456" type="line"/>
      <point x="105" y="396" type="line"/>
      <point x="-8" y="340" type="line"/>
    </contour>
    <component base="l.alt" xOffset="12"/>
  </outline>
</glyph>
<glyph name="m.sups" format="1">
  <advance width="560"/>
  <outline>
    <contour>
      <point x="39" y="260" type="line"/>
      <point x="150" y="260" type="line"/>
      <point x="191" y="470" type="line"/>
      <point x="212" y="494"/>
      <point x="233" y="506"/>
      <point x="244" y="506" type="curve" smooth="yes"/>
      <point x="263" y="506"/>
      <point x="270" y="495"/>
      <point x="270" y="478" type="curve" smooth="yes"/>
      <point x="270" y="469"/>
      <point x="267" y="460"/>
      <point x="265" y="450" type="curve" smooth="yes"/>
      <point x="228" y="260" type="line"/>
      <point x="337" y="260" type="line"/>
      <point x="378" y="470" type="line"/>
      <point x="400" y="495"/>
      <point x="421" y="506"/>
      <point x="433" y="506" type="curve" smooth="yes"/>
      <point x="451" y="506"/>
      <point x="455" y="496"/>
      <point x="455" y="481" type="curve" smooth="yes"/>
      <point x="455" y="470"/>
      <point x="454" y="460"/>
      <point x="452" y="450" type="curve" smooth="yes"/>
      <point x="415" y="260" type="line"/>
      <point x="525" y="260" type="line"/>
      <point x="566" y="463" type="line" smooth="yes"/>
      <point x="569" y="478"/>
      <point x="571" y="497"/>
      <point x="571" y="510" type="curve" smooth="yes"/>
      <point x="571" y="569"/>
      <point x="549" y="600"/>
      <point x="494" y="600" type="curve" smooth="yes"/>
      <point x="450" y="600"/>
      <point x="413" y="571"/>
      <point x="382" y="543" type="curve"/>
      <point x="371" y="578"/>
      <point x="350" y="600"/>
      <point x="308" y="600" type="curve" smooth="yes"/>
      <point x="263" y="600"/>
      <point x="228" y="576"/>
      <point x="198" y="548" type="curve"/>
      <point x="194" y="548" type="line"/>
      <point x="194" y="592" type="line"/>
      <point x="104" y="592" type="line"/>
    </contour>
  </outline>
</glyph>
<glyph name="macronacute" format="1">
  <advance width="0"/>
  <outline>
    <contour>
      <point x="154" y="719" type="line"/>
      <point x="277" y="830" type="line"/>
      <point x="198" y="896" type="line"/>
      <point x="98" y="764" type="line"/>
    </contour>
    <contour>
      <point x="-32" y="590" type="line"/>
      <point x="262" y="590" type="line"/>
      <point x="282" y="690" type="line"/>
      <point x="-12" y="690" type="line"/>
    </contour>
  </outline>
</glyph>
<glyph name="macronacute.cap" format="1">
  <advance width="0"/>
  <outline>
    <contour>
      <point x="-26" y="716" type="line"/>
      <point x="274" y="716" type="line"/>
      <point x="294" y="818" type="line"/>
      <point x="-6" y="818" type="line"/>
    </contour>
    <contour>
      <point x="166" y="829" type="line"/>
      <point x="317" y="951" type="line"/>
      <point x="223" y="1023" type="line"/>
      <point x="100" y="879" type="line"/>
    </contour>
  </outline>
</glyph>
<glyph name="macroncmb.cap" format="1">
  <outline>
    <contour>
      <point x="-26" y="716" type="line"/>
      <point x="274" y="716" type="line"/>
      <point x="294" y="818" type="line"/>
      <point x="-6" y="818" type="line"/>
    </contour>
    <contour>
      <point x="136" y="682" type="move" name="_aboveUC"/>
    </contour>
  </outline>
</glyph>
<glyph name="macroncmb" format="1">
  <advance width="0"/>
  <outline>
    <contour>
      <point x="114" y="522" type="move" name="_aboveLC"/>
    </contour>
    <contour>
      <point x="-32" y="590" type="line"/>
      <point x="262" y="590" type="line"/>
      <point x="282" y="690" type="line"/>
      <point x="-12" y="690" type="line"/>
    </contour>
  </outline>
</glyph>
<glyph name="macroncmb.cap" format="1">
  <advance width="0"/>
  <outline>
    <contour>
      <point x="136" y="682" type="move" name="_aboveUC"/>
    </contour>
    <contour>
      <point x="-26" y="716" type="line"/>
      <point x="274" y="716" type="line"/>
      <point x="294" y="818" type="line"/>
      <point x="-6" y="818" type="line"/>
    </contour>
  </outline>
</glyph>
<glyph name="naira" format="1">
  <advance width="520"/>
  <outline>
    <contour>
      <point x="16" y="0" type="line"/>
      <point x="134" y="0" type="line"/>
      <point x="178" y="228" type="line"/>
      <point x="204" y="526" type="line"/>
      <point x="208" y="526" type="line"/>
      <point x="228" y="234" type="line"/>
      <point x="252" y="0" type="line"/>
      <point x="398" y="0" type="line"/>
      <point x="526" y="644" type="line"/>
      <point x="408" y="644" type="line"/>
      <point x="364" y="414" type="line"/>
      <point x="338" y="118" type="line"/>
      <point x="334" y="118" type="line"/>
      <point x="314" y="410" type="line"/>
      <point x="292" y="644" type="line"/>
      <point x="144" y="644" type="line"/>
    </contour>
    <contour>
      <point x="20" y="344" type="line"/>
      <point x="532" y="344" type="line"/>
      <point x="546" y="406" type="line"/>
      <point x="100" y="406" type="line"/>
      <point x="30" y="400" type="line"/>
    </contour>
    <contour>
      <point x="-2" y="238" type="line"/>
      <point x="512" y="238" type="line"/>
      <point x="524" y="300" type="line"/>
      <point x="78" y="300" type="line"/>
      <point x="10" y="294" type="line"/>
    </contour>
  </outline>
</glyph>
<glyph name="o.sups" format="1">
  <advance width="362"/>
  <outline>
    <contour>
      <point x="186" y="360" type="curve" smooth="yes"/>
      <point x="282" y="360"/>
      <point x="376" y="442"/>
      <point x="376" y="569" type="curve" smooth="yes"/>
      <point x="376" y="657"/>
      <point x="316" y="708"/>
      <point x="240" y="708" type="curve" smooth="yes"/>
      <point x="144" y="708"/>
      <point x="50" y="626"/>
      <point x="50" y="499" type="curve" smooth="yes"/>
      <point x="50" y="411"/>
      <point x="110" y="360"/>
    </contour>
    <contour>
      <point x="196" y="448" type="curve" smooth="yes"/>
      <point x="172" y="448"/>
      <point x="162" y="468"/>
      <point x="162" y="500" type="curve" smooth="yes"/>
      <point x="162" y="568"/>
      <point x="188" y="620"/>
      <point x="230" y="620" type="curve" smooth="yes"/>
      <point x="254" y="620"/>
      <point x="264" y="600"/>
      <point x="264" y="568" type="curve" smooth="yes"/>
      <point x="264" y="500"/>
      <point x="238" y="448"/>
    </contour>
  </outline>
</glyph>
<glyph name="ogonekcmb" format="1">
  <outline>
    <contour>
      <point x="-34" y="-212" type="curve" smooth="yes"/>
      <point x="2" y="-212"/>
      <point x="50" y="-194"/>
      <point x="80" y="-172" type="curve"/>
      <point x="54" y="-108" type="line"/>
      <point x="44" y="-114"/>
      <point x="34" y="-118"/>
      <point x="24" y="-118" type="curve" smooth="yes"/>
      <point x="6" y="-118"/>
      <point x="-10" y="-108"/>
      <point x="-10" y="-90" type="curve" smooth="yes"/>
      <point x="-10" y="-62"/>
      <point x="8" y="-34"/>
      <point x="56" y="2" type="curve"/>
      <point x="-30" y="2" type="line"/>
      <point x="-60" y="-18"/>
      <point x="-124" y="-70"/>
      <point x="-124" y="-136" type="curve" smooth="yes"/>
      <point x="-124" y="-186"/>
      <point x="-86" y="-212"/>
    </contour>
    <contour>
      <point x="0" y="0" type="move" name="_ogonekLC"/>
    </contour>
  </outline>
</glyph>
<glyph name="oogonek" format="1">
  <advance width="540"/>
  <outline>
    <contour>
      <point x="334" y="522" type="move" name="aboveLC"/>
    </contour>
    <contour>
      <point x="186" y="-212" type="curve" smooth="yes"/>
      <point x="222" y="-212"/>
      <point x="270" y="-194"/>
      <point x="300" y="-172" type="curve"/>
      <point x="274" y="-108" type="line"/>
      <point x="264" y="-114"/>
      <point x="254" y="-118"/>
      <point x="244" y="-118" type="curve" smooth="yes"/>
      <point x="226" y="-118"/>
      <point x="210" y="-108"/>
      <point x="210" y="-90" type="curve" smooth="yes"/>
      <point x="210" y="-65"/>
      <point x="234" y="-28"/>
      <point x="298" y="-2" type="curve" smooth="yes"/>
      <point x="412" y="44"/>
      <point x="510" y="130"/>
      <point x="510" y="304" type="curve" smooth="yes"/>
      <point x="510" y="436"/>
      <point x="422" y="512"/>
      <point x="310" y="512" type="curve" smooth="yes"/>
      <point x="172" y="512"/>
      <point x="26" y="390"/>
      <point x="26" y="196" type="curve" smooth="yes"/>
      <point x="26" y="85"/>
      <point x="88" y="14"/>
      <point x="178" y="-6" type="curve"/>
      <point x="160" y="-18"/>
      <point x="96" y="-70"/>
      <point x="96" y="-136" type="curve" smooth="yes"/>
      <point x="96" y="-186"/>
      <point x="134" y="-212"/>
    </contour>
    <contour>
      <point x="244" y="116" type="curve" smooth="yes"/>
      <point x="206" y="116"/>
      <point x="188" y="148"/>
      <point x="188" y="198" type="curve" smooth="yes"/>
      <point x="188" y="306"/>
      <point x="234" y="384"/>
      <point x="292" y="384" type="curve" smooth="yes"/>
      <point x="330" y="384"/>
      <point x="348" y="352"/>
      <point x="348" y="302" type="curve" smooth="yes"/>
      <point x="348" y="194"/>
      <point x="302" y="116"/>
    </contour>
  </outline>
</glyph>
<glyph name="p.sups" format="1">
  <advance width="373"/>
  <outline>
    <contour>
      <point x="144" y="402" type="line"/>
      <point x="148" y="402" type="line"/>
      <point x="160" y="377"/>
      <point x="185" y="360"/>
      <point x="212" y="360" type="curve" smooth="yes"/>
      <point x="304" y="360"/>
      <point x="390" y="460"/>
      <point x="390" y="586" type="curve" smooth="yes"/>
      <point x="390" y="664"/>
      <point x="354" y="708"/>
      <point x="296" y="708" type="curve" smooth="yes"/>
      <point x="264" y="708"/>
      <point x="232" y="692"/>
      <point x="202" y="664" type="curve"/>
      <point x="198" y="664" type="line"/>
      <point x="194" y="700" type="line"/>
      <point x="104" y="700" type="line"/>
      <point x="12" y="236" type="line"/>
      <point x="124" y="236" type="line"/>
      <point x="143" y="333" type="line"/>
    </contour>
    <contour>
      <point x="248" y="618" type="curve" smooth="yes"/>
      <point x="264" y="618"/>
      <point x="276" y="604"/>
      <point x="276" y="572" type="curve" smooth="yes"/>
      <point x="276" y="500"/>
      <point x="237" y="449"/>
      <point x="201" y="449" type="curve" smooth="yes"/>
      <point x="189" y="449"/>
      <point x="178" y="458"/>
      <point x="172" y="474" type="curve"/>
      <point x="190" y="576" type="line"/>
      <point x="208" y="610"/>
      <point x="230" y="618"/>
    </contour>
  </outline>
</glyph>
<glyph name="peseta" format="1">
  <advance width="520"/>
  <outline>
    <contour>
      <point x="6" y="0" type="line"/>
      <point x="156" y="0" type="line"/>
      <point x="200" y="218" type="line"/>
      <point x="230" y="218" type="line" smooth="yes"/>
      <point x="364" y="218"/>
      <point x="498" y="298"/>
      <point x="498" y="478" type="curve" smooth="yes"/>
      <point x="498" y="598"/>
      <point x="418" y="644"/>
      <point x="314" y="644" type="curve" smooth="yes"/>
      <point x="136" y="644" type="line"/>
    </contour>
    <contour>
      <point x="220" y="316" type="line"/>
      <point x="266" y="544" type="line"/>
      <point x="288" y="544" type="line" smooth="yes"/>
      <point x="328" y="544"/>
      <point x="350" y="518"/>
      <point x="350" y="466" type="curve" smooth="yes"/>
      <point x="350" y="378"/>
      <point x="310" y="316"/>
      <point x="242" y="316" type="curve" smooth="yes"/>
    </contour>
    <contour>
      <point x="26" y="382" type="line"/>
      <point x="534" y="382" type="line"/>
      <point x="552" y="480" type="line"/>
      <point x="118" y="480" type="line"/>
      <point x="44" y="474" type="line"/>
    </contour>
  </outline>
</glyph>
<glyph name="product" format="1">
  <advance width="694"/>
  <outline>
    <contour>
      <point x="84" y="-120" type="line"/>
      <point x="244" y="-120" type="line"/>
      <point x="244" y="494" type="line"/>
      <point x="470" y="494" type="line"/>
      <point x="470" y="-120" type="line"/>
      <point x="630" y="-120" type="line"/>
      <point x="630" y="634" type="line"/>
      <point x="84" y="634" type="line"/>
    </contour>
  </outline>
</glyph>
<glyph name="r.sups" format="1">
  <advance width="264"/>
  <outline>
    <contour>
      <point x="38" y="260" type="line"/>
      <point x="149" y="260" type="line"/>
      <point x="187" y="457" type="line"/>
      <point x="211" y="490"/>
      <point x="233" y="503"/>
      <point x="264" y="503" type="curve" smooth="yes"/>
      <point x="275" y="503"/>
      <point x="283" y="503"/>
      <point x="292" y="498" type="curve"/>
      <point x="328" y="592" type="line"/>
      <point x="321" y="596"/>
      <point x="310" y="599"/>
      <point x="291" y="599" type="curve" smooth="yes"/>
      <point x="254" y="599"/>
      <point x="220" y="573"/>
      <point x="195" y="539" type="curve"/>
      <point x="192" y="539" type="line"/>
      <point x="193" y="592" type="line"/>
      <point x="103" y="592" type="line"/>
    </contour>
  </outline>
</glyph>
<glyph name="ringcmb" format="1">
  <advance width="0"/>
  <outline>
    <contour>
      <point x="114" y="522" type="move" name="_aboveLC"/>
    </contour>
    <contour>
      <point x="118" y="570" type="curve" smooth="yes"/>
      <point x="207" y="570"/>
      <point x="272" y="620"/>
      <point x="272" y="686" type="curve" smooth="yes"/>
      <point x="272" y="744"/>
      <point x="222" y="778"/>
      <point x="150" y="778" type="curve" smooth="yes"/>
      <point x="61" y="778"/>
      <point x="-4" y="728"/>
      <point x="-4" y="662" type="curve" smooth="yes"/>
      <point x="-4" y="604"/>
      <point x="47" y="570"/>
    </contour>
    <contour>
      <point x="128" y="630" type="curve" smooth="yes"/>
      <point x="106" y="630"/>
      <point x="96" y="646"/>
      <point x="96" y="666" type="curve" smooth="yes"/>
      <point x="96" y="694"/>
      <point x="116" y="718"/>
      <point x="140" y="718" type="curve" smooth="yes"/>
      <point x="162" y="718"/>
      <point x="172" y="700"/>
      <point x="172" y="682" type="curve" smooth="yes"/>
      <point x="172" y="654"/>
      <point x="152" y="630"/>
    </contour>
  </outline>
</glyph>
<glyph name="ringcmb.cap" format="1">
  <advance width="0"/>
  <outline>
    <contour>
      <point x="136" y="682" type="move" name="_aboveUC"/>
    </contour>
    <contour>
      <point x="132" y="696" type="curve" smooth="yes"/>
      <point x="204" y="696"/>
      <point x="262" y="746"/>
      <point x="262" y="810" type="curve" smooth="yes"/>
      <point x="262" y="870"/>
      <point x="207" y="898"/>
      <point x="148" y="898" type="curve" smooth="yes"/>
      <point x="77" y="898"/>
      <point x="18" y="846"/>
      <point x="18" y="784" type="curve" smooth="yes"/>
      <point x="18" y="722"/>
      <point x="71" y="696"/>
    </contour>
    <contour>
      <point x="134" y="756" type="curve" smooth="yes"/>
      <point x="113" y="756"/>
      <point x="102" y="772"/>
      <point x="102" y="790" type="curve" smooth="yes"/>
      <point x="102" y="814"/>
      <point x="121" y="838"/>
      <point x="146" y="838" type="curve" smooth="yes"/>
      <point x="167" y="838"/>
      <point x="178" y="822"/>
      <point x="178" y="804" type="curve" smooth="yes"/>
      <point x="178" y="778"/>
      <point x="157" y="756"/>
    </contour>
  </outline>
</glyph>
<glyph name="squareblack" format="1">
  <advance width="870"/>
  <outline>
    <contour>
      <point x="60" y="-60" type="line"/>
      <point x="840" y="-60" type="line"/>
      <point x="840" y="720" type="line"/>
      <point x="60" y="720" type="line"/>
    </contour>
  </outline>
</glyph>
<glyph name="squareshadow" format="1">
  <advance width="870"/>
  <outline>
    <contour>
      <point x="60" y="-60" type="line"/>
      <point x="760" y="-60" type="line"/>
      <point x="840" y="30" type="line"/>
      <point x="840" y="720" type="line"/>
      <point x="150" y="720" type="line"/>
      <point x="60" y="640" type="line"/>
    </contour>
    <contour>
      <point x="134" y="14" type="line"/>
      <point x="134" y="616" type="line"/>
      <point x="736" y="616" type="line"/>
      <point x="736" y="14" type="line"/>
    </contour>
  </outline>
</glyph>
<glyph name="sterling" format="1">
  <advance width="520"/>
  <outline>
    <contour>
      <point x="-4" y="0" type="line"/>
      <point x="442" y="0" type="line"/>
      <point x="466" y="134" type="line"/>
      <point x="240" y="134" type="line"/>
      <point x="242" y="138" type="line"/>
      <point x="282" y="190"/>
      <point x="296" y="236"/>
      <point x="296" y="306" type="curve" smooth="yes"/>
      <point x="296" y="332"/>
      <point x="290" y="368"/>
      <point x="290" y="394" type="curve" smooth="yes"/>
      <point x="290" y="490"/>
      <point x="332" y="528"/>
      <point x="380" y="528" type="curve" smooth="yes"/>
      <point x="410" y="528"/>
      <point x="428" y="514"/>
      <point x="450" y="486" type="curve"/>
      <point x="552" y="570" type="line"/>
      <point x="512" y="624"/>
      <point x="460" y="656"/>
      <point x="388" y="656" type="curve" smooth="yes"/>
      <point x="252" y="656"/>
      <point x="142" y="560"/>
      <point x="142" y="418" type="curve" smooth="yes"/>
      <point x="142" y="380"/>
      <point x="152" y="326"/>
      <point x="152" y="288" type="curve" smooth="yes"/>
      <point x="152" y="200"/>
      <point x="98" y="132"/>
      <point x="16" y="98" type="curve"/>
    </contour>
    <contour>
      <point x="56" y="262" type="line"/>
      <point x="410" y="262" type="line"/>
      <point x="432" y="376" type="line"/>
      <point x="150" y="376" type="line"/>
      <point x="76" y="370" type="line"/>
    </contour>
  </outline>
</glyph>
<glyph name="triangleblackdown" format="1">
  <advance width="574"/>
  <outline>
    <contour>
      <point x="556" y="546" type="line"/>
      <point x="18" y="546" type="line"/>
      <point x="18" y="544" type="line"/>
      <point x="286" y="16" type="line"/>
      <point x="288" y="16" type="line"/>
      <point x="556" y="544" type="line"/>
    </contour>
  </outline>
</glyph>
<glyph name="triangleblackleft" format="1">
  <advance width="572"/>
  <outline>
    <contour>
      <point x="524" y="560" type="line"/>
      <point x="522" y="560" type="line"/>
      <point x="12" y="284" type="line"/>
      <point x="12" y="280" type="line"/>
      <point x="522" y="2" type="line"/>
      <point x="524" y="2" type="line"/>
    </contour>
  </outline>
</glyph>
<glyph name="triangleblackright" format="1">
  <advance width="572"/>
  <outline>
    <contour>
      <point x="50" y="2" type="line"/>
      <point x="52" y="2" type="line"/>
      <point x="562" y="280" type="line"/>
      <point x="562" y="284" type="line"/>
      <point x="52" y="560" type="line"/>
      <point x="50" y="560" type="line"/>
    </contour>
  </outline>
</glyph>
<glyph name="triangleblackup" format="1">
  <advance width="574"/>
  <outline>
    <contour>
      <point x="18" y="16" type="line"/>
      <point x="556" y="16" type="line"/>
      <point x="556" y="18" type="line"/>
      <point x="288" y="548" type="line"/>
      <point x="286" y="548" type="line"/>
      <point x="18" y="18" type="line"/>
    </contour>
  </outline>
</glyph>
<glyph name="trianglewhitedown" format="1">
  <advance width="870"/>
  <outline>
    <contour>
      <point x="840" y="720" type="line"/>
      <point x="60" y="720" type="line"/>
      <point x="60" y="718" type="line"/>
      <point x="448" y="-80" type="line"/>
      <point x="452" y="-80" type="line"/>
      <point x="840" y="718" type="line"/>
    </contour>
    <contour>
      <point x="655" y="610" type="line"/>
      <point x="450" y="165" type="line"/>
      <point x="245" y="610" type="line"/>
    </contour>
  </outline>
</glyph>
<glyph name="v.sups" format="1">
  <advance width="350"/>
  <outline>
    <contour>
      <point x="114" y="260" type="line"/>
      <point x="241" y="260" type="line"/>
      <point x="407" y="592" type="line"/>
      <point x="299" y="592" type="line"/>
      <point x="236" y="442" type="line"/>
      <point x="194" y="340" type="line"/>
      <point x="191" y="340" type="line"/>
      <point x="190" y="442" type="line"/>
      <point x="184" y="592" type="line"/>
      <point x="73" y="592" type="line"/>
    </contour>
  </outline>
</glyph>
<glyph name="w.sups" format="1">
  <advance width="514"/>
  <outline>
    <contour>
      <point x="94" y="260" type="line"/>
      <point x="219" y="260" type="line"/>
      <point x="266" y="379" type="line"/>
      <point x="296" y="470" type="line"/>
      <point x="299" y="470" type="line"/>
      <point x="296" y="379" type="line"/>
      <point x="297" y="260" type="line"/>
      <point x="426" y="260" type="line"/>
      <point x="563" y="592" type="line"/>
      <point x="461" y="592" type="line"/>
      <point x="408" y="447" type="line"/>
      <point x="377" y="347" type="line"/>
      <point x="374" y="347" type="line"/>
      <point x="378" y="447" type="line"/>
      <point x="369" y="592" type="line"/>
      <point x="279" y="592" type="line"/>
      <point x="217" y="447" type="line"/>
      <point x="183" y="347" type="line"/>
      <point x="180" y="347" type="line"/>
      <point x="187" y="447" type="line"/>
      <point x="190" y="592" type="line"/>
      <point x="81" y="592" type="line"/>
    </contour>
  </outline>
</glyph>
<glyph name="zero.dnom" format="1">
  <advance width="384"/>
  <outline>
    <contour>
      <point x="154" y="-12" type="curve" smooth="yes"/>
      <point x="270" y="-12"/>
      <point x="350" y="96"/>
      <point x="350" y="242" type="curve" smooth="yes"/>
      <point x="350" y="342"/>
      <point x="284" y="404"/>
      <point x="206" y="404" type="curve" smooth="yes"/>
      <point x="90" y="404"/>
      <point x="10" y="296"/>
      <point x="10" y="150" type="curve" smooth="yes"/>
      <point x="10" y="50"/>
      <point x="76" y="-12"/>
    </contour>
    <contour>
      <point x="164" y="82" type="curve" smooth="yes"/>
      <point x="136" y="82"/>
      <point x="122" y="108"/>
      <point x="122" y="152" type="curve" smooth="yes"/>
      <point x="122" y="250"/>
      <point x="156" y="310"/>
      <point x="196" y="310" type="curve" smooth="yes"/>
      <point x="224" y="310"/>
      <point x="238" y="284"/>
      <point x="238" y="240" type="curve" smooth="yes"/>
      <point x="238" y="142"/>
      <point x="204" y="82"/>
    </contour>
  </outline>
</glyph>
